<svg version="1" xmlns="http://www.w3.org/2000/svg" width="682.667" height="682.667" viewBox="0 0 512.000000 512.000000"><path d="M231.5 2.6C194.4 6.6 156.8 19 126 37.5c-18.9 11.4-33 22.5-48.5 38-20.7 20.6-35 40.1-47.4 64.3C-19.1 236.4-2.2 352.3 72.7 431c40.9 43.1 98 71 157.2 77 13.2 1.3 39 1.3 52.2 0 59.2-6 116.3-34 157.3-77.1 55.8-58.7 80.4-139.5 66.6-218.9-17-98.2-89.8-176.9-187-202.3-20.6-5.4-32.8-6.9-59-7.2-13.5-.2-26.3-.1-28.5.1zm81.7 74.6c.3.9 4 1.5 11.4 2 12.5.7 37.3 3.4 45.4 4.8 3 .5 9.1 1.5 13.5 2.1 8.7 1.2 14.5 4.4 14.5 7.9 0 1 .4 2.1.9 2.5.6.3 1.3 2.7 1.7 5.3.3 2.6.9 5.1 1.3 5.7.7 1.2 3.5 13.8 6.6 30.5 4.2 22.1 6.6 60.1 4.6 74.5-.5 4.4-1.5 11.4-2 15.5-2.1 16.5-5.2 26.9-12.2 41.7-2.1 4.6-3.9 8.5-3.9 8.8 0 .5-11.1 17.6-12 18.5-.3.3-2.8 3.2-5.5 6.5-2.8 3.3-5.3 6.2-5.8 6.3-.4.2-3.9 3-7.8 6.2-3.8 3.3-8.8 6.9-10.9 8.1-2.2 1.3-4 2.6-4 3 0 .4-.8.9-1.7 1.3-1 .3-2.5 1-3.3 1.5-1.7 1-14.4 6.9-17.5 8.1-13.8 5.3-24.2 7.8-37.5 9.1-12.3 1.1-14.4.7-16.5-3.7-1.5-3.2-1.5-3.7.1-6.9 2.1-4.5 6.6-6.5 14.8-6.5 7 0 20.5-3.2 30.1-7 7.8-3.1 11.1-4.5 11.5-5.1.3-.3 1.6-1 3-1.4 1.4-.4 3.7-1.6 5.2-2.6 1.4-1.1 2.9-1.9 3.2-1.9.3 0 3.9-2.4 7.9-5.4 8.2-6.1 18-16.1 25.1-25.6 5.4-7.3 13.4-23.4 16-32.5 1-3.3 2.1-6.9 2.6-8 1.2-2.7 2.9-16.1 4-31.4 1.3-17.3-1.2-59.6-3.9-67.1-.5-1.4-1.2-5-1.6-8-.3-3-1-6.9-1.5-8.5-.5-1.7-1.7-6.4-2.6-10.5-.9-4.1-1.8-8.2-2-9.1-.6-2-6-3.5-17.4-4.9-4.7-.6-11.6-1.5-15.5-2-20.3-2.6-26.8-3-46.5-3-11.8.1-24.6.5-28.5 1.1-3.8.5-9.1 1.3-11.8 1.6-2.6.3-5 1-5.3 1.4-.3.5-1.6.9-2.8.9-6.9 0-28.3 9.6-33.6 15-.3.3-2.3 1.7-4.5 3.1-5 3.3-20 17.9-24.6 23.9-1.8 2.5-3.9 5-4.5 5.6-.6.7-2.9 4.3-5.3 8-2.3 3.8-4.6 7.6-5.1 8.4-.6.8-2.4 4.6-4 8.5-1.7 3.8-3.8 8.2-4.6 9.7-.7 1.4-1.4 3.5-1.4 4.5 0 1.1-.3 2.3-.7 2.7-2.4 2.4-7.6 23.4-9.3 37.3-.9 8-2.6 11.1-6.7 12.8-5.6 2.3-12.3-5-10.3-11.2.4-1.5 1.1-6.3 1.5-10.6.3-4.4 1-8.6 1.4-9.5.5-1 1.6-5.1 2.6-9.2s2.1-8 2.5-8.5c.4-.6 1.1-2.6 1.5-4.5.4-1.9 1.1-4.1 1.5-5 .5-.8 2.3-5.1 4.1-9.5 5.4-13.1 12.2-25.2 19.8-35.5 8.3-11.2 15.5-19 23-25 2.4-1.9 5.1-4.2 6.1-5.1 6.9-6.4 26.8-17.2 38-20.6 15.9-4.8 24.5-6.3 41.5-7.2 9.5-.6 15.1-1.3 15.3-2 .5-1.6 11.9-1.5 12.4.1zM351 122c0 .5.6 1 1.3 1 4.1 0 7 9.2 4.5 14-.8 1.4-3 3.3-5.1 4.3-3.5 1.6-3.9 1.6-7.4 0-2.5-1.2-4.4-3.1-5.6-5.6-1.6-3.5-1.6-3.9 0-7.5 1-2 2.8-4.1 4.1-4.7 1.2-.5 2.2-1.3 2.2-1.7 0-.5 1.4-.8 3-.8 1.7 0 3 .4 3 1zm-93.1 14.7c2 2.3 2.3 3.5 1.9 8-.5 5.9-2.1 7.8-7.4 8.9-3.6.7-8.8-1.6-10.4-4.5-.5-1.1-1-3.8-1-6 0-9.1 10.9-13.2 16.9-6.4zM365 191c4.1 2.9 5.5 7.7 3.4 11.9-2.3 4.6-5.6 6.5-10.5 5.8-4.7-.6-7.4-3-8.3-7.4-2-9 7.9-15.7 15.4-10.3zm-148.4 12.2c4.2 5 4.7 6.7 2.9 10.6-2.3 4.9-5.3 7.2-9.5 7.2-7.4 0-11.9-8.1-8.5-15.3 1.8-3.9 2.9-4.4 9.1-4.6 3.1-.1 4.5.4 6 2.1zm69.8 10.3c3.3 2.2 5 6.7 4.2 11-1 5-4 7.5-9.4 7.5-5.8 0-10.2-4.3-10.2-10 0-7.7 9-12.7 15.4-8.5zM88 239.2c17.3 20.6 32 32 44.7 34.6 2.2.5 3.8 1.4 3.8 2.2 0 1.6-9.8 5.9-13.5 6-1.5 0-3.1.5-3.7 1.1-1.8 1.8-18.5-1.5-22.9-4.5-9.2-6.2-14.1-18-15.1-36.4-.5-10 .4-10.5 6.7-3zm250.2 14.5c3.9 3.8 4 10.5.1 14.5-3.6 3.8-10.5 4-13.8.3-4.2-4.4-4-11 .2-15.7 2.6-2.9 10.1-2.4 13.5.9zm-81.1 32.1c2.8 2.5 3.2 3.5 3.1 7.7-.1 6.7-3.4 10-9.9 9.9-6.3-.1-9.3-3.5-9.3-10.4 0-4.3.4-5.2 3.3-7.4 4.4-3.5 8.8-3.4 12.8.2zM133.5 302c.3.5 1.8 1 3.3 1 3.1 0 13.9 4.9 17.3 7.8 5.4 4.6 6.6 5.9 9.7 9.8 2.2 2.9 4.2 4.3 6.4 4.7 10.2 1.8 15.8 3.3 15.8 4.4 0 .3-2.3 3-5.1 6.1-2.8 3.1-6.5 8.3-8.2 11.6-2.8 5.6-3.1 7-3.1 16.3-.1 6.9.3 10.6 1.2 11.4.6.7 1.2 2.1 1.2 3.1s1.8 5.5 4.1 9.9c5.1 10 5.4 14 1.3 17.8-4.2 4-16 9.1-21 9.1-1.1 0-2.4.3-2.8.7-.4.5-4 1.3-7.9 2-13 2.1-22.2 4.3-27.2 6.3-1.1.5-3.1 1.2-4.5 1.5-1.4.4-4.2 2.1-6.3 3.7-2.1 1.7-4.1 2.7-4.5 2.3-1.2-1.1-1.4-31.4-.3-40.5 1.4-11.8 3-20.3 4.2-21.4.5-.6.9-1.7.9-2.6 0-.8 1.4-4.4 3.1-7.9 3.6-7.3 3.9-6.9-6.6-10.2-3.8-1.3-8.1-2.9-9.5-3.6-1.4-.7-3.2-1.3-4-1.3-.9 0-2-.4-2.6-1-.5-.5-4.4-1.3-8.7-1.6l-7.6-.7 1.7-2.9c.9-1.7 5.5-6.9 10.2-11.7 14.5-14.7 24.5-21.1 37-23.5 9.3-1.8 11.7-1.9 12.5-.6zm65 33.5c1.1.8 3.7 2.8 5.9 4.5 2.1 1.6 4.3 3 4.7 3 .5 0 .9.6.9 1.4 0 .7.7 1.9 1.5 2.6.8.6 2.6 3.3 4.1 5.8 2.1 3.8 2.7 6.4 3.1 13.7.3 4.9 0 10.8-.6 13-1.4 5.7-2.6 10.1-4.6 17-.9 3.3-2.2 8.3-2.9 11.2l-1.1 5.2-7.8-7.1c-7.1-6.4-12.3-12.7-15.4-18.5-.6-1.2-1.8-3.5-2.6-5-2.4-4.5-4.7-12.8-4.7-17.3 0-8.4 4.3-18.8 10.8-26.1 4.7-5.3 5.8-5.7 8.7-3.4zm50.6 32.7c3.9 1.3 4.9 2.1 9.5 6.5 4.7 4.7 6.1 11.5 4.5 23.1-.7 4.9-.9 10.1-.5 11.6l.6 2.7-4.8-2.7c-8.9-5-12-7.2-14.7-10.6-1.5-1.8-3.3-4-4-4.8-.7-.9-1.2-4.8-1.2-10.5 0-7.7.4-9.6 2.4-12.8 2.5-4.1 3.2-4.3 8.2-2.5z"/><path d="M116 306.5c-1.4.8-3.1 1.4-3.8 1.5-3.1 0-16.4 10-24.9 18.6-5.1 5.2-9.3 9.8-9.3 10.4 0 .5.9 1 2 1s2.8.4 3.8.9c.9.5 4.2 1.6 7.2 2.6 3 .9 6.4 2 7.5 2.5 4.8 1.9 11.3 3.9 14.5 4.5 3.3.6 3.8.3 8-4.7 6.9-8.3 19.8-15.8 29.5-17.2 10.6-1.5 12.5-1.9 12.5-2.6 0-1.3-14.3-14-15.6-14-.7 0-1.4-.3-1.6-.8-.1-.4-2-1.5-4.1-2.5-4.9-2.2-21.9-2.4-25.7-.2z"/></svg>