<svg height="512" viewBox="0 0 512 512" width="512" xmlns="http://www.w3.org/2000/svg"><g id="BULINE"><circle cx="256" cy="256" fill="#8eddf3" r="256"/></g><g id="Icons"><path d="m436.61 95.75v205.33h-215.12v-205.33l8-12.33a11.09 11.09 0 0 1 4.42-3.92l90.32-44.14a11 11 0 0 1 9.68 0l90.3 44.14a11.09 11.09 0 0 1 4.42 3.92z" fill="#ad3e0e"/><path d="m319.43 77.3a21.89 21.89 0 0 1 19.24 0l67.23 32.85a23.59 23.59 0 0 1 9.42 8.35l21.29 32.89v-40.61l-8-12.32a10.94 10.94 0 0 0 -4.42-3.92l-90.3-44.14a11 11 0 0 0 -9.68 0l-71 34.7v-15l-19.32 9.4a11.09 11.09 0 0 0 -4.42 3.92l-8 12.33v205.33h215.14v-29h-168.23a15.17 15.17 0 0 1 -15.17-15.08v-134.8a20.08 20.08 0 0 1 11.27-18z" fill="#96330e"/><path d="m461.24 145.46-7.89 5.1a6.34 6.34 0 0 1 -8.76-1.87l-8-12.34-24.82-38.35-82.72-40.44-82.72 40.44-24.84 38.37-8 12.34a6.34 6.34 0 0 1 -8.76 1.87l-7.89-5.1a6.32 6.32 0 0 1 -1.84-8.78l26.5-40.95 8-12.33a11.09 11.09 0 0 1 4.42-3.92l90.32-44.14a11 11 0 0 1 9.68 0l90.29 44.14a11.09 11.09 0 0 1 4.42 3.92l8 12.33 26.5 40.95a6.33 6.33 0 0 1 -1.89 8.76z" fill="#535045"/><path d="m461.9 144.78-25.29-39.08-8-12.33a11 11 0 0 0 -4.42-3.91l-90.3-44.14a11 11 0 0 0 -9.68 0l-90.32 44.14a11 11 0 0 0 -4.42 3.91l-8 12.33-25.27 39.08a6.34 6.34 0 0 1 -1.21-8.27l26.5-41 8-12.32a10.94 10.94 0 0 1 4.42-3.92l90.32-44.14a11 11 0 0 1 9.68 0l90.32 44.14a10.94 10.94 0 0 1 4.42 3.92l8 12.32 26.5 41a6.34 6.34 0 0 1 -1.25 8.27z" fill="#646055"/><path d="m461.24 145.46-7.89 5.1a6.34 6.34 0 0 1 -8.76-1.87l-8-12.34-24.82-38.35-82.72-40.44-82.72 40.44-24.84 38.37-8 12.34a6.34 6.34 0 0 1 -8.76 1.87l-7.89-5.1a6.32 6.32 0 0 1 -1.84-8.78l2.56-4 7.2 4.66a6.33 6.33 0 0 0 8.76-1.88l8-12.33 24.84-38.37 82.72-40.43 82.72 40.43 24.84 38.37 8 12.33a6.33 6.33 0 0 0 8.76 1.88l7.2-4.66 2.56 4a6.33 6.33 0 0 1 -1.92 8.76z" fill="#434038"/><path d="m276.88 194.21h111.24v97.21h-111.24z" fill="#462605"/><path d="m397.82 179h-132a4 4 0 0 0 -4 4v7.24a4 4 0 0 0 1.16 2.81 3.85 3.85 0 0 0 .92.68 3.91 3.91 0 0 0 1.9.48h4.64v97.21h10.23l5.14 5.14 5.13-5.14 19.3-19.3 16.76-16.73 4.83-4.83 46 46 5.14-5.14h9.76v-97.21h5.11a4 4 0 0 0 2.81-1.16 4 4 0 0 0 1.16-2.81v-7.24a4 4 0 0 0 -3.99-4zm-105.13 93.12-9.84 9.88v-80.4l40.15 40.18zm39.12-39.12-4.81-4.83-34-34h77.6l-34 34zm39.11 39.12-30.34-30.34 39.72-39.71v79.43z" fill="#fff"/><path d="m397.82 187h-132a4 4 0 0 1 -4-4v7.24a4 4 0 0 0 4 4h61.18v97.21h9.65v-97.24h61.19a4 4 0 0 0 4-4v-7.21a4 4 0 0 1 -4.02 4z" fill="#bdbdbd"/><rect fill="#5e3723" height="12.42" rx="2.41" width="242.7" x="207.7" y="291.42"/><path d="m259.07 303.84h-49a2.41 2.41 0 0 1 -2.41-2.41v-7.6a2.41 2.41 0 0 1 2.41-2.41h49a2.42 2.42 0 0 0 -2.42 2.41v7.6a2.42 2.42 0 0 0 2.42 2.41z" fill="#502f1f"/><rect fill="#5c300d" height="44.82" rx="3.45" width="6.89" x="288.03" y="218.68"/><rect fill="#5c300d" height="44.82" rx="3.45" width="6.89" x="367.15" y="218.68"/><ellipse cx="404.71" cy="146.93" fill="#d48162" rx="6.38" ry="14.07" transform="matrix(.837 -.547 .547 .837 -14.45 245.34)"/><ellipse cx="418.89" cy="168.63" fill="#d48162" rx="3.97" ry="8.76" transform="matrix(.837 -.547 .547 .837 -24.01 256.63)"/><path d="m367.15 92.92h-74.87a3.44 3.44 0 0 0 -3.45 3.44v56.48a3.46 3.46 0 0 0 3.45 3.45h74.87a3.46 3.46 0 0 0 3.45-3.45v-56.48a3.44 3.44 0 0 0 -3.45-3.44zm-9 51h-56.91v-38.59h56.95z" fill="#fff"/><path d="m301.24 105.32h56.95v38.55h-56.95z" fill="#462605"/><path d="m358.19 134.65v9.22h-56.95v-38.55h10.57v24.86a4.47 4.47 0 0 0 4.47 4.47z" fill="#361e05"/><path d="m66.77 228.03h151v13.75h-151z" fill="#b58645"/><path d="m66.77 276.14h151v13.75h-151z" fill="#b58645"/><path d="m54.52 207.62-4.05 3.78a11.62 11.62 0 0 0 -3.7 8.5v77.29a6.65 6.65 0 0 0 6.65 6.65h6.69a6.66 6.66 0 0 0 6.66-6.65v-77.29a11.62 11.62 0 0 0 -3.7-8.5l-4.07-3.78a3.29 3.29 0 0 0 -4.48 0z" fill="#ecb64f"/><path d="m59.43 303.84h-6a6.66 6.66 0 0 1 -6.66-6.65v-77.29a11.59 11.59 0 0 1 3.7-8.5l4.06-3.78a3.28 3.28 0 0 1 4.48 0l.76.71-3.3 3.07a11.59 11.59 0 0 0 -3.7 8.5v77.29a6.66 6.66 0 0 0 6.66 6.65z" fill="#d09e4a"/><circle cx="56.77" cy="224.03" fill="#462605" r="4"/><circle cx="56.77" cy="287.02" fill="#462605" r="4"/><path d="m85.52 207.62-4 3.78a11.62 11.62 0 0 0 -3.7 8.5v77.29a6.65 6.65 0 0 0 6.65 6.65h6.69a6.66 6.66 0 0 0 6.66-6.65v-77.29a11.62 11.62 0 0 0 -3.7-8.5l-4.12-3.78a3.29 3.29 0 0 0 -4.48 0z" fill="#ecb64f"/><path d="m90.43 303.84h-6a6.66 6.66 0 0 1 -6.66-6.65v-77.29a11.59 11.59 0 0 1 3.7-8.5l4.06-3.78a3.28 3.28 0 0 1 4.48 0l.76.71-3.3 3.07a11.59 11.59 0 0 0 -3.7 8.5v77.29a6.66 6.66 0 0 0 6.66 6.65z" fill="#d09e4a"/><circle cx="87.77" cy="224.03" fill="#462605" r="4"/><circle cx="87.77" cy="287.02" fill="#462605" r="4"/><path d="m116.52 207.62-4 3.78a11.62 11.62 0 0 0 -3.7 8.5v77.29a6.65 6.65 0 0 0 6.65 6.65h6.69a6.66 6.66 0 0 0 6.66-6.65v-77.29a11.62 11.62 0 0 0 -3.7-8.5l-4.12-3.78a3.29 3.29 0 0 0 -4.48 0z" fill="#ecb64f"/><path d="m121.43 303.84h-6a6.66 6.66 0 0 1 -6.66-6.65v-77.29a11.59 11.59 0 0 1 3.7-8.5l4.06-3.78a3.28 3.28 0 0 1 4.48 0l.76.71-3.3 3.07a11.59 11.59 0 0 0 -3.7 8.5v77.29a6.66 6.66 0 0 0 6.66 6.65z" fill="#d09e4a"/><circle cx="118.77" cy="224.03" fill="#462605" r="4"/><circle cx="118.77" cy="287.02" fill="#462605" r="4"/><path d="m147.52 207.62-4.05 3.78a11.62 11.62 0 0 0 -3.7 8.5v77.29a6.65 6.65 0 0 0 6.65 6.65h6.69a6.66 6.66 0 0 0 6.66-6.65v-77.29a11.62 11.62 0 0 0 -3.7-8.5l-4.07-3.78a3.29 3.29 0 0 0 -4.48 0z" fill="#ecb64f"/><path d="m152.43 303.84h-6a6.66 6.66 0 0 1 -6.66-6.65v-77.29a11.59 11.59 0 0 1 3.7-8.5l4.06-3.78a3.28 3.28 0 0 1 4.48 0l.76.71-3.3 3.07a11.59 11.59 0 0 0 -3.7 8.5v77.29a6.66 6.66 0 0 0 6.66 6.65z" fill="#d09e4a"/><circle cx="149.77" cy="224.03" fill="#462605" r="4"/><circle cx="149.77" cy="287.02" fill="#462605" r="4"/><path d="m178.52 207.62-4.05 3.78a11.62 11.62 0 0 0 -3.7 8.5v77.29a6.65 6.65 0 0 0 6.65 6.65h6.69a6.66 6.66 0 0 0 6.66-6.65v-77.29a11.62 11.62 0 0 0 -3.7-8.5l-4.07-3.78a3.29 3.29 0 0 0 -4.48 0z" fill="#ecb64f"/><path d="m183.43 303.84h-6a6.66 6.66 0 0 1 -6.66-6.65v-77.29a11.59 11.59 0 0 1 3.7-8.5l4.06-3.78a3.28 3.28 0 0 1 4.48 0l.76.71-3.3 3.07a11.59 11.59 0 0 0 -3.7 8.5v77.29a6.66 6.66 0 0 0 6.66 6.65z" fill="#d09e4a"/><circle cx="180.77" cy="224.03" fill="#462605" r="4"/><circle cx="180.77" cy="287.02" fill="#462605" r="4"/><path d="m209.52 207.62-4.05 3.78a11.62 11.62 0 0 0 -3.7 8.5v77.29a6.65 6.65 0 0 0 6.65 6.65h6.69a6.66 6.66 0 0 0 6.66-6.65v-77.29a11.62 11.62 0 0 0 -3.7-8.5l-4.07-3.78a3.29 3.29 0 0 0 -4.48 0z" fill="#ecb64f"/><path d="m214.43 303.84h-6a6.66 6.66 0 0 1 -6.66-6.65v-77.29a11.59 11.59 0 0 1 3.7-8.5l4.06-3.78a3.28 3.28 0 0 1 4.48 0l.76.71-3.3 3.07a11.59 11.59 0 0 0 -3.7 8.5v77.29a6.66 6.66 0 0 0 6.66 6.65z" fill="#d09e4a"/><circle cx="211.77" cy="224.03" fill="#462605" r="4"/><circle cx="211.77" cy="287.02" fill="#462605" r="4"/><path d="m508 301.08a255.72 255.72 0 0 1 -252 210.92 257.51 257.51 0 0 1 -42.39-3.5 254.28 254.28 0 0 1 -92.61-34.95 257.35 257.35 0 0 1 -71.09-65.66 254.69 254.69 0 0 1 -45.91-106.81z" fill="#d87a1d"/><path d="m184.77 301.08-1.34 2.76c-26.49 50.98-46.43 108.38-62.43 169.71a257.35 257.35 0 0 1 -71.09-65.66c37.35-78.39 83.09-106.81 83.09-106.81z" fill="#5e3723"/><path d="m322 503.41a258.08 258.08 0 0 1 -108.39 5.09c-.61-82.25 27.39-186.12 32.56-204.66.43-1.5.7-2.44.8-2.76v-.13h54.24l.06.13q.57 1.28 1.11 2.76c12.47 33.45 17.67 141.16 19.62 199.57z" fill="#5e3723"/><path d="m465.17 403.62a257.07 257.07 0 0 1 -47.95 51.24c-14.22-67.86-49.59-136.33-57.46-151.02-.8-1.5-1.32-2.44-1.49-2.76l-.08-.13h60.7a1.59 1.59 0 0 1 .13.13 30.65 30.65 0 0 1 2.54 2.76c12.23 14.89 28.49 55.9 43.61 99.78z" fill="#5e3723"/><g fill="#be691b"><ellipse cx="198.27" cy="328.94" rx="13.5" ry="7.01"/><ellipse cx="211.77" cy="369.96" rx="13.5" ry="7.01"/><ellipse cx="159.77" cy="407.96" rx="13.5" ry="7.01"/><ellipse cx="346" cy="413.95" rx="13.5" ry="7.01"/><ellipse cx="323.03" cy="317.95" rx="13.5" ry="7.01"/><ellipse cx="358.19" cy="362.96" rx="13.5" ry="7.01"/><ellipse cx="464.13" cy="317.95" rx="13.5" ry="7.01"/><ellipse cx="73.27" cy="317.95" rx="13.5" ry="7.01"/><ellipse cx="46.77" cy="355.95" rx="13.5" ry="7.01"/><ellipse cx="142.27" cy="328.94" rx="13.5" ry="7.01"/><ellipse cx="83.77" cy="406.94" rx="13.5" ry="7.01"/><ellipse cx="254.81" cy="413.95" rx="13.5" ry="7.01"/><ellipse cx="276.88" cy="348.94" rx="13.5" ry="7.01"/><ellipse cx="395.35" cy="324.96" rx="13.5" ry="7.01"/><ellipse cx="433.09" cy="383.98" rx="13.5" ry="7.01"/></g></g></svg>