<?xml version="1.0" encoding="iso-8859-1"?>
<!-- Generator: Adobe Illustrator 19.0.0, SVG Export Plug-In . SVG Version: 6.00 Build 0)  -->
<svg version="1.1" id="Layer_1" xmlns="http://www.w3.org/2000/svg" xmlns:xlink="http://www.w3.org/1999/xlink" x="0px" y="0px"
	 viewBox="0 0 511.999 511.999" style="enable-background:new 0 0 511.999 511.999;" xml:space="preserve">
<g>
	<g>
		<path d="M68.586,147.512c0.005,0.033,0.008,0.064,0.014,0.092c0.043,0.082,0.086,0.164,0.122,0.248
			C68.748,147.844,68.719,147.732,68.586,147.512z"/>
	</g>
</g>
<g>
	<g>
		<path d="M164.545,199.039c-4.885-1.99-12.958,0.227-13.569,6.329c-0.104,1.04,0.945,1.834,1.875,1.875
			c2.764,0.122,5.429-1.978,8.08-1.338c2.854,0.689,6.335,5.17,5.737,8.202c-0.108,0.549-0.566,1.028-1.677,1.928
			c-1.178,0.954-2.525,1.668-3.979,2.173c-1.209,0.42-2.642,0.81-3.931,0.742c-1.596-0.084-2.774-1.029-4.259-1.55
			c-2.382-0.834-4.68,1.742-4.022,4.022c1.782,6.18,9.827,5.415,14.643,3.848c5.621-1.829,11.378-5.233,11.124-11.787
			C174.334,207.461,170.171,201.33,164.545,199.039z"/>
	</g>
</g>
<g>
	<g>
		<path d="M194.439,225.359c-0.281-1.791-2.622-2.927-4.241-2.407c-4.611,1.479-9.099,3.907-13.481,5.988
			c-4.951,2.351-10.521,3.715-15.922,4.564c-11.626,1.828-23.975,1.689-35.468-1.036c-0.421-0.192-0.879-0.305-1.353-0.339
			c-0.409-0.105-0.82-0.204-1.227-0.316c-1.201-0.33-2.771,0.407-3.019,1.714c-0.02,0.107-0.041,0.214-0.061,0.321
			c-0.114,0.603-0.044,1.127,0.145,1.565c-0.002,0.112-0.018,0.217-0.008,0.335c1.707,21.367,21.698,34.668,42.174,32.719
			c10.271-0.978,19.273-4.551,24.801-13.624c2.91-4.777,4.188-9.941,5.423-15.327C193.261,234.895,195.186,230.122,194.439,225.359z
			 M185.623,239.469c-0.055,0.25-0.117,0.497-0.174,0.747c-0.827,0.397-1.607,0.903-2.405,1.679
			c-0.459,0.447-0.938,0.906-1.432,1.362c-0.043,0.016-0.089,0.021-0.131,0.039c-9.454,4.062-18.948,6.873-29.392,7.255
			c-5.024,0.184-10.052-0.557-14.683-2.534c-4.807-2.053-7.505-4.753-9.08-8.858c9.762,2.95,20.213,3.222,30.425,1.818
			c5.789-0.796,11.494-1.881,17.023-3.828c4.109-1.447,7.914-3.724,11.842-5.638C187.109,234.308,186.091,237.34,185.623,239.469z"
			/>
	</g>
</g>
<g>
	<g>
		<path d="M139.913,205.745c0.416,0.477-0.006-0.724-0.101-1.229c-0.186-0.98-0.409-1.842-0.857-2.757
			c-0.86-1.759-2.092-3.239-3.657-4.405c-4.058-3.024-8.564-3.533-12.984-1.078c-4.029,2.239-6.448,5.569-6.479,10.337
			c-0.017,2.542,0.644,7.524,4.109,7.424c0.819-0.024,1.49-0.547,1.735-1.322c1.128-3.564,0.794-9.165,5.308-10.315
			c5.809-1.48,4.612,6.033,7.304,8.315c1.352,1.146,2.965,1.401,4.557,0.588l0.373-0.19
			C141.302,210.049,141.274,207.305,139.913,205.745z"/>
	</g>
</g>
<g>
	<g>
		<path d="M198.754,189.885c-2.332-3.549-6.986-4.952-11.02-3.934c-4.695,1.185-7.75,4.536-8.677,9.22
			c-0.658,3.324-2.29,9.538,2.331,10.609c1.325,0.307,2.498-0.606,2.564-1.953c0.078-1.607,1.692-3.908,2.214-5.586
			c0.654-2.102,1.179-4.091,3.731-4.447c3.883-0.542,3.894,7.143,6.196,8.951c1.42,1.116,3.246,1.354,4.654,0
			C204.287,199.341,200.992,193.292,198.754,189.885z"/>
	</g>
</g>
<g>
	<g>
		<path d="M382.606,204.952c1.137-0.067,1.824-1.007,1.607-2.11c-0.819-4.163-8.17-4.354-11.411-3.939
			c-5.053,0.646-9.096,4.224-10.16,9.235c-1.061,4.997,0.054,9.575,4.404,12.391c4.4,2.848,10.943,3.784,15.369,0.571
			c1.453-1.055,1.666-3.175,0-4.19c-4.05-2.466-13.666,1.505-13.108-6.211C369.797,203.923,377.801,205.235,382.606,204.952z"/>
	</g>
</g>
<g>
	<g>
		<path d="M356.292,196.197c-1.505-3.817-4.863-6.164-8.907-6.683c-7.76-0.996-18.238,6.646-13.647,15.116
			c0.904,1.666,3.101,1.375,4.067,0.001c1.43-2.035,1.82-4.961,3.89-6.525c1.674-1.265,5.064-1.873,6.805-0.325
			c2.666,2.371,0.198,7.893,3.506,9.622c1.22,0.638,3.1,0.642,4.065-0.525C358.566,203.86,357.641,199.62,356.292,196.197z"/>
	</g>
</g>
<g>
	<g>
		<path d="M417.463,203.75c-1.737-4.053-5.646-6.537-9.864-7.46c-8.144-1.784-15.805,6.829-13.936,14.805
			c0.539,2.3,3.881,2.672,5.012,0.655c1.409-2.512,3.326-7.829,6.792-7.726c1.735,0.051,4.074,1.234,4.877,2.821
			c1.032,2.038-0.014,5.016,0.075,7.249c0.11,2.748,3.662,4.596,5.705,2.363C418.948,213.371,419.055,207.461,417.463,203.75z"/>
	</g>
</g>
<g>
	<g>
		<path d="M404.256,231.789c-5.315-0.098-10.531,2.21-15.908,2.459c-6.263,0.291-13.004-0.421-19.082-1.97
			c-5.252-1.339-10.457-3.69-15.513-5.644c-3.717-1.437-7.271-3.983-11.069-5.384c-7.327-6.506-5.439,8.389-5.001,11.44
			c0.872,6.066,2.819,11.779,6.395,16.801c5.826,8.182,14.377,13.734,24.235,15.736c4.74,0.963,8.343,0.658,13.004-0.496
			c4.252-1.053,9.007-1.77,12.354-4.851c6.362-5.856,9.553-16.283,12.956-23.961C407.455,234.051,406.503,231.831,404.256,231.789z
			 M369.121,258.558c-7.565-1.88-13.661-6.008-18.261-11.992c4.242,2.606,8.857,4.878,13.573,6.127
			c5.625,1.49,12.042,2.116,17.854,2.156c2.203,0.015,4.655,0.269,6.959,0.109C383.95,259.129,375.167,260.061,369.121,258.558z
			 M395.712,245.445c-0.43,0.499-0.903,0.862-1.416,1.138c-1.012,0.546-2.184,0.759-3.507,1.031
			c-3.961,0.814-8.196,0.78-12.084,0.566c-4.069-0.224-8.611-0.714-12.569-1.662c-4.438-1.064-8.596-3.175-12.558-5.326
			c-2.119-1.15-5.453-2.333-7.844-4.066c-0.534-1.651-0.925-3.367-1.195-5.24c-0.158-1.099-0.215-2.227-0.263-3.358
			c2.036,1.298,4.185,2.428,6.277,3.435c5.356,2.579,11.206,5.195,16.922,6.808c5.671,1.6,12.106,2.351,17.99,2.431
			c3.149,0.043,6.293-0.155,9.354-0.923c1.393-0.35,2.833-0.997,4.285-1.602C398.094,240.734,397.206,243.712,395.712,245.445z"/>
	</g>
</g>
<g>
	<g>
		<path d="M509.75,187.311c-4.236-11.436-13.594-17.676-23.629-23.757c-2.213-1.341-4.47-2.624-6.752-3.871
			c0.427-0.628,0.733-1.384,0.821-2.297c0.816-8.542,1.894-17.166,1.342-25.768c0.144,0.054,0.288,0.106,0.432,0.164
			c1.574,0.637,3.584,1.033,5.191,1.842c0.918,0.94,2.013,1.639,3.726,1.759c4.019,0.281,4.576-4.975,1.874-6.919
			c-1.898-1.365-4.084-1.972-6.292-2.644c-0.493-0.15-0.973-0.331-1.452-0.511c0.407-0.232,0.806-0.456,1.175-0.679
			c2.211-1.333,4.378-2.663,6.246-4.465c2.785-2.687-0.851-7.602-4.193-5.434c-0.772,0.501-1.529,1.02-2.289,1.535
			c0.751-1.286,1.436-2.609,2.044-3.978c1.416-3.19,3.924-6.376,2.459-9.817c-0.478-1.122-2.044-1.541-3.121-1.27
			c-4.112,1.036-4.562,6.565-5.888,9.899c-0.674,1.695-1.644,3.437-2.428,5.221c-1.252-5.049-2.847-10.022-4.684-14.851
			c-6.249-16.43-18.09-34.182-34.827-41.184c-4.173-1.745-8.285-3.987-12.583-5.402c-4.349-1.432-9.113-1.85-13.657-2.151
			c-10.09-0.667-19.797-0.446-29.716,1.762c-18.904,4.207-34.435,14.481-46.994,29.043c-7.72,8.951-13.899,18.388-18.6,29.238
			c-3.623,8.364-7.41,17.617-6.234,26.892c-3.344,0.779-6.664,1.681-9.958,2.707c0.154-0.903,0.344-1.797,0.659-2.656
			c1.011-2.748,1.818-4.987,1.634-7.972c-0.126-2.034-1.736-3.083-3.658-2.787c-3.316,0.512-3.511,3.778-4.404,6.351
			c-0.296,0.852-0.619,1.672-0.907,2.506c-1.44-1.755-3.061-3.348-5.046-4.626c-3.417-2.199-6.699,2.6-4.176,5.412
			c1.644,1.832,2.87,5.361,4.633,7.987c-8.171,3.764-16.795,9.658-18.503,18.189c-1.07,5.343,1.491,11.274,5.34,14.923
			c2.833,2.686,7.06,5.982,11.301,7.204c-0.506,1.047-0.969,2.115-1.37,3.208c-2.878,7.843-1.602,16.091,0.699,23.933
			c1.346,4.585,3.098,8.683,2.538,13.571c-0.413,3.604-1.513,7.188-0.935,10.838c1.36,8.587,8.949,11.388,12.832,18.17
			c2.709,4.731,1.74,11.583,6.154,15.122c-0.695,1.392-1.117,3.095-1.349,4.729c-3.352-2.269-7.601-2.951-11.59-3.223
			c-4.336-0.296-8.434-0.16-12.735,0.188c-3.516,0.285-7.352-0.242-10.618,0.913c-0.786-0.928-1.713-1.741-2.818-2.39
			c-4.632-2.721-11.569-2.281-16.494-0.724c-4.202,1.328-8.226,2.762-12.729,2.442c-4.058-0.288-7.961-1.128-12.052-1.289
			c-3.646-0.143-7.229-0.752-10.864-0.993c-2.867-0.19-5.835-0.876-8.507,0.146c-1.76-0.997-3.657-1.929-5.598-2.596
			c8.945-7.049,15.977-16.323,19.723-28.125c1.894-5.965,4.443-11.705,6.063-17.75c1.775-6.623,2.861-12.734,3.607-19.526
			c0.571-5.203,0.613-10.069,0.124-15.14c0.422,0.01,0.867-0.024,1.355-0.159c17.092-4.708,39.608-26.042,22.949-43.276
			c-3.562-3.684-8.197-5.111-13.059-6.27c-6.363-1.516-12.857-2.936-19.333-3.874c-1.491-0.216-2.988-0.42-4.49-0.612
			c0.272-0.975,0.244-2.066-0.284-3.196c-0.75-1.606-0.851-3.904-1.51-5.619c-0.795-2.068-1.517-4.121-2.227-6.217
			c-1.555-4.587-3.812-8.865-6.325-12.995c-4.417-7.258-8.602-14.919-14.416-21.179c0.047-0.021,0.091-0.046,0.138-0.066
			c2.975-1.266,6.101-1.432,8.783-3.396c2.519-1.845,2.01-6.647-1.746-6.447c-3.119,0.166-6.043,0.794-8.946,1.964
			c-0.178,0.072-0.351,0.156-0.528,0.231c0.05-0.278,0.093-0.546,0.122-0.8c0.235-2.031,0.827-4.031,0.718-6.087
			c-0.209-3.932-5.893-4.148-6.386-0.502c-0.387,2.101-1.063,4.294-1.641,6.504c-11.855-9.207-26.331-15.685-40.71-18.814
			c-9.967-2.169-19.996-0.798-29.655,2.009c-8.995,2.614-18.499,5.537-26.388,10.678c-7.963,5.189-15.753,10.317-21.976,17.653
			c-6.212,7.323-11.501,15.726-15.318,24.543c-4.425,10.224-8.39,21.062-10.373,32.045c-0.908,5.028-1.43,10.257-1.485,15.362
			c-0.027,2.484,0.264,5.446,1.159,8.06c-1.825,0.806-3.658,1.6-5.465,2.432c-2.094,0.965-4.162,1.976-6.221,3.007
			c0.314-1.236,0.503-2.432,0.555-3.44c0.205-3.928-6.109-4.845-6.92-0.936c-0.264,1.272-0.694,2.527-1.126,3.752
			c-0.077,0.219-0.332,0.73-0.591,1.276c-0.309-0.233-0.639-0.448-0.906-0.614c-1.171-0.725-2.59-1.164-3.872-1.656
			c-3.004-1.153-5.184,3.931-2.21,5.241c0.018,0.008,0.036,0.019,0.054,0.027c1.151,0.857,2.313,1.632,3.436,2.524
			c-0.266,0.15-0.534,0.295-0.8,0.445c-5.078,2.883-10.951,6.225-14.404,11.084c-2.951,4.154-3.959,9.677-0.435,13.838
			c3.868,4.567,8.752,3.854,13.729,5.809c0.065,0.026,0.128,0.036,0.192,0.055c-2.525,7.166,0.921,16.972,1.832,23.853
			c1.76,13.287,4.509,26.717,7.768,39.72c2.15,8.579,5.258,20.309,15.6,21.233c6.216,0.555,12.588,1.189,18.83,0.93
			c2.957-0.122,3.173-0.066,3.386,2.924c0.187,2.616,0.781,5.22,1.216,7.815c-4.358,1.551-7.714,5.229-10.754,8.564
			c-2.455,2.694-5.844,6.441-6.621,10.377c-3.099,1.412-5.911,3.25-8.142,5.427c-3.981,3.883-6.598,9.332-8.307,14.576
			c-1.39,4.268-2.559,10.913-0.88,15.517c-3.533,4.792-6.19,10.216-7.595,15.93c-1.407,5.722-1.541,10.899,0.686,16.424
			c2.111,5.237,5.2,8.685,8.889,12.854c3.878,4.384,19.017,12.548,25.295,8.381c1.525,1.303,3.2,2.508,5.108,3.621
			c4.785,2.791,11.277,5.525,17.221,5.692c-0.31,2.774-0.063,5.754,0.064,8.339c0.252,5.103-0.103,10.381,1.156,15.374
			c0.914,3.625,2.494,7.751,5.757,9.901c3.782,2.492,8.888,0.979,12.907-0.116c3.562-0.971,7.452-2.547,9.836-5.489
			c2.935-3.622,2.276-7.991,1.614-12.301c-0.609-3.963-1.236-7.911-2.144-11.799c1.413,0.083,2.837,0.064,4.261,0.06
			c4.564-0.014,9.135,0.519,13.699,0.634c8.699,0.219,17.235-0.132,25.953,0.39c9.212,0.552,18.512,0.06,27.738,0.131
			c9.13,0.07,18.188,0.193,27.303-0.269c8.708-0.441,17.461,0.299,26.173,0.011c5.096-0.168,13.284,0.278,16.729-4.277
			c1.841-2.434,1.752-5.4,1.74-8.329c-0.02-4.918-0.002-9.867-0.176-14.782c-0.218-6.153-0.777-12.358-1.389-18.528
			c0.193-0.422,0.338-0.893,0.394-1.432c0.537-5.133,1.362-10.286,1.9-15.444c8.173,3.579,17.134,1.617,25.621-0.783
			c6.102-1.726,12.938-5.267,18.149-10.042c-4.302,10.431-8.123,20.925-11.611,31.678c-3.438,10.602-6.579,22.442-3.893,33.579
			c2.366,9.81,14.449,10.234,22.794,11.595c10.36,1.689,21.092,0.871,31.538,1.444c10.581,0.581,21.25,0.741,31.835,1.14
			c4.993,0.188,9.859,0.535,14.87,0.509c5.843-0.029,11.722,0.781,17.527,0.26c11.171-1.002,22.66-0.841,33.884-1.237
			c12.961-0.457,25.128-1.125,37.266-6.372c4.311-1.864,9.394-4.768,11.763-8.955c1.9-3.358,2.397-7.194,2.242-10.98
			c0.132-0.777,0.232-1.572,0.253-2.411c0.128-5.094,0.062-10.172-0.741-15.205c-0.322-2.018-1.522-9.739-3.931-13.655
			c0.831-1.964,1.435-4.063,1.761-6.49c1.292-9.592-1.742-20.767-9.667-26.77c0.382-2.224-0.294-4.564-1.66-6.373
			c2.296-2.476,3.802-5.983,2.465-9.095c-0.664-1.544-3.147-4.332-5.416-4.942c0.348-3.409-0.025-6.898-1.034-10.06
			c-1.762-5.524-5.022-10.202-9.624-13.725c-2.754-2.108-7.508-4.637-11.512-4.443c-0.153-1.679-0.576-3.271-1.363-4.662
			c7.161-3.568,12.195-12.087,9.423-20.683c12.629-6.274,17.29-21.309,23.2-33.02c2.108-4.177,3.986-8.683,5.381-13.275
			c8.724,0.442,19.412-3.324,24.508-9.878C513.201,206.187,512.987,196.048,509.75,187.311z M415.553,65.177
			c1.033-0.929,2.062-2.151,3.107-3.2c4.104,0.849,8.095,2.097,11.876,3.816c3.513,1.597,7.24,2.754,10.56,4.756
			c4.054,2.446,7.137,6.112,10.371,9.51c5.952,6.255,10.568,13.93,13.775,21.931c0.261,0.652,0.51,1.319,0.763,1.981
			c-2.211,0.957-4.39,2.129-6.549,3.265c-0.402-1.042-0.804-2.083-1.201-3.118c-0.018,0.007-0.035,0.015-0.053,0.022
			c-0.885-2.644-5.288-2.5-5.132,0.68c0.086,1.743,0.448,3.424,0.895,5.09c-2.403,1.037-4.862,1.922-7.359,2.695
			c-0.148-1.551-0.48-3.074-1.177-4.573c-1.668-3.59-6.591-0.873-5.985,2.523c0.149,0.838,0.246,1.712,0.349,2.59
			c0.012,0.437,0.003,0.878-0.021,1.32c-0.052,0.012-0.103,0.026-0.154,0.038c-5.459,1.299-10.638,2.129-16.214,2.181
			c0.342-1.375,0.646-2.762,0.914-4.189c0.526-2.799-3.115-5.808-5.335-3.106c-0.184,0.224-0.344,0.443-0.485,0.657
			c-0.005-0.004-0.01-0.007-0.014-0.011c-0.021,0.046-0.039,0.094-0.06,0.14c-0.464,0.746-0.704,1.454-0.891,2.206
			c-0.5,1.378-0.935,2.798-1.372,4.215c-3.834-0.23-7.393-1.066-10.473-4.151c-0.669-0.67-1.299-1.376-1.913-2.098
			c2.364-1.178,4.666-2.492,6.3-4.307c2.136-2.373,0.049-5.965-3.073-5.28c-2.553,0.56-5.075,2.077-7.472,3.538
			c-0.966-1.671-1.829-3.399-2.589-5.157c-0.857-1.984-1.393-3.818-1.613-5.564c0.378-0.008,0.755-0.021,1.132-0.026
			c2.942-0.035,6.266,1.167,6.633-3.018c0.13-1.48-1.164-2.965-2.536-3.33c-1.497-0.399-2.882-0.457-4.284-0.405
			c0.719-1.66,1.802-3.304,3.275-4.994c1.938-2.222,3.938-4.385,5.984-6.504c2.155,1.599,4.259,3.24,6.347,4.943
			c2.475,2.017,6.643-0.528,4.715-3.638c-1.463-2.36-4.12-4.216-6.509-5.865c0.123-0.119,0.244-0.242,0.367-0.361
			C412.202,68.696,413.75,66.798,415.553,65.177z M379.36,64.404c10.042-3.043,21.197-4.504,31.948-3.516
			c-1.908,1.513-3.627,3.235-4.87,4.34c-0.661,0.587-1.328,1.178-1.998,1.771c-0.559-0.312-1.136-0.609-1.745-0.887
			c-1.757-1.036-3.732-1.759-5.696-2.617c-3.778-1.65-6.498,3.014-3.213,5.496c1.623,1.226,3.542,1.967,5.458,2.742
			c-2.517,2.397-4.92,4.907-6.987,7.623c-1.899,2.496-3.106,5.083-3.753,7.708c-1.849-0.178-3.8-0.006-5.543-0.035
			c-4.394-0.075-4.399,6.778,0,6.828c1.684,0.019,3.362-0.017,5.038-0.066c0.388,4.718,2.223,9.409,4.79,13.776
			c-2.138,1.135-4.325,2.643-6.181,4.199c-2.115,1.773-0.473,6.012,2.359,5.696c2.865-0.32,5.567-2.123,8.11-3.661
			c0.203,0.258,0.405,0.517,0.611,0.77c3.998,4.921,8.394,8.341,14.806,9.212c0.374,0.051,0.758,0.086,1.136,0.131
			c-0.745,2.17-1.377,4.399-1.562,6.62c-0.374,4.491,5.824,4.515,7.248,0.981c0.189-0.329,0.29-0.681,0.305-1.057
			c0.061-0.443,0.061-0.882-0.006-1.299c0.268-1.563,0.804-3.187,1.363-4.746c4.587,0.075,9.235-0.268,13.554-1.081
			c1.312-0.247,2.624-0.517,3.934-0.799c-0.554,3.432-0.608,6.74,1.731,9.583c2.007,2.44,5.776,0.304,5.87-2.432
			c0.105-3.058,0.244-6.096,0.402-9.152c3.121-0.899,6.2-1.933,9.19-3.159c0.088-0.036,0.19-0.074,0.28-0.11
			c0.601,2.719,1.111,5.267,2.544,7.823c1.639,2.924,5.643,1.359,5.897-1.597c0.24-2.789-1.218-5.976-2.166-8.672
			c2.257-0.938,4.527-2.027,6.383-3.364c1.848,5.972,3.229,12.15,3.797,18.223c0.806,8.617-0.203,17.306-1.054,25.88
			c-6.134-2.964-12.436-5.606-18.824-7.88c-12.853-4.575-26.32-7.155-39.732-9.466c-12.771-2.201-25.896-3.868-38.874-3.812
			c-19.349,0.085-38.929,0.483-57.864,4.323C327.063,107.302,345.495,74.665,379.36,64.404z M303.236,246.678
			c-2.484-2.33-5.187-5.234-5.779-8.738c-0.501-2.966,0.925-6.275,1.325-9.197c0.919-6.726-1.729-12.346-3.433-18.694
			c-1.942-7.239-2.597-13.866,1-20.711c3.114-5.925,8.066-10.964,13.518-14.788c10.143-7.116,22.836-8.366,34.909-10.536
			c-1.802,1.844-3.375,4.077-4.894,6.495c-0.031,0.05-0.047,0.098-0.075,0.148c-1.18,1.123-2.26,2.396-3.371,3.516
			c-0.602,0.607-1.218,1.197-1.83,1.794c-1.021,0.549-2.097,1.061-3.258,1.567c-6.274,2.739-14.091,4.994-18.504,10.531
			c-9.046,11.351-7.715,27.055-4.534,40.238c2.699,11.185,8.392,22.668,16.3,31.496c-0.144,0.09-0.288,0.177-0.43,0.292
			c-2.385,1.93-5.388,6.041-8.529,6.558c-5.027,0.827-4.4-4.808-4.915-7.917C309.935,253.901,306.704,249.931,303.236,246.678z
			 M447.113,361.602c-3.285-6.792-10.767-12.797-17.44-16.091c-0.166-0.082-0.334-0.158-0.501-0.238
			c0.584-0.246,1.17-0.495,1.765-0.703c3.7-1.298,7.35-1.588,11.206-1.181c8.998,0.949,16.068,8.509,20.693,15.806
			c4.682,7.386,5.334,21.141-0.571,28.139c-3.043,3.606-7.569,4.856-11.859,6.452c-2.371,0.881-5.021,1.646-7.684,1.949
			C449.718,386.117,452.245,372.215,447.113,361.602z M397.835,375.888c0.269,1.272,1.993,4.243,1.881,5.486
			c-0.076,0.84-2.123,3.472-2.509,4.401c-0.437,1.051-0.771,2.089-0.949,3.205c-0.781,0.587-1.596,1.125-2.542,1.504
			c-1.849,0.74-3.778,0.996-5.455,2.135c-2.813,1.91-4.699,5.784-3.697,9.149c0.524,1.757,1.569,3.228,2.91,4.403
			c-0.297,0.357-0.554,0.775-0.733,1.284c0.044-0.125-7.353,0.74-7.92,0.766c-4.203,0.197-8.364-0.349-12.551-0.429
			c-8.193-0.158-16.197-2.577-24.052-4.73c-2.695-0.739-5.086-0.703-5.978-3.865c-0.398-1.409-0.37-3.57-0.448-5.032
			c-0.233-4.374,0.124-8.757-0.023-13.129c-0.16-4.754-0.809-9.291-0.578-14.077c0.203-4.219,0.184-8.428,0.094-12.65
			c-0.073-3.417-0.24-7.034-0.237-10.672c2.253-0.222,4.961-1.18,6.117-1.19c7.179-0.062,13.705,3.7,20.275,6.1
			c5.727,2.092,11.418,3.788,17.556,2.741c3.822-0.652,8.624-1.958,12.585-3.78c0.991,0.778,2.224,1.294,3.669,1.431
			c3.33,0.318,5.513,0.364,7.147,3.604c0.046,0.091,0.09,0.189,0.135,0.288c-0.057,0.4-0.105,0.798-0.14,1.189
			c-0.14,1.587,0.332,3.172,0.224,4.719c-0.063,0.902,0.401,0.374,0.084,1.274c-0.268,0.762-1.473,1.569-2.011,2.322
			c-1.943,2.722-3.367,5.876-3.363,9.268C397.329,373.011,397.544,374.513,397.835,375.888z M400.325,401.21
			c-0.006,0.003-0.011,0.005-0.017,0.008c-2.293,1.363-5.991,2.579-8.432,1.141c-1.723-1.015-2.511-2.708-1.315-4.506
			c0.904-1.359,2.447-1.534,3.849-2.085c0.65-0.255,1.414-0.664,2.177-1.174c0.468,1.736,1.255,3.391,2.295,4.86
			C399.325,400.078,399.811,400.658,400.325,401.21z M320.986,293.04c3.885-0.85,8.018-3.272,11.105-6.203
			c0.274,0.275,0.604,0.477,0.964,0.612c1.686,1.429,2.579,5.731,2.74,7.382c0.475,4.877-1.768,8.661-5.861,11.188
			c-4.56,2.815-10.39-0.856-10.613-6.16C319.22,297.481,320.265,295.266,320.986,293.04z M316.048,285.593
			c-1.478-1.107-2.158-4.494-2.439-6.261c-0.276-1.737-0.018-3.689,0.102-5.587c5.973,0.454,11.648-4.854,15.034-9.089
			c0.113-0.142,0.198-0.286,0.288-0.429c0.324,0.291,0.653,0.572,0.98,0.857c-0.001,2.595,1.521,5.075,1.465,6.701
			c-0.208,6.03-3.916,9.839-8.801,12.693C320.899,285.516,318.059,287.099,316.048,285.593z M325.651,314.047
			c2.272,0.201,4.564-0.16,6.614-1.208c2.73-1.395,4.99-3.237,6.733-5.414c0.294,0.232,0.592,0.46,0.878,0.7
			c0.967,0.811,1.818,1.612,2.606,2.602c0.511,0.642,1.041,1.252,1.233,2.059c0.146,0.617,0.206,1.186,0.293,1.738
			c-4.605,0.436-8.952,1.833-11.58,5.994c-1.299,2.057-1.718,4.499-2.016,6.892c-1.324-0.215-2.627-0.352-3.49-0.621
			C321.049,324.955,324.279,318.706,325.651,314.047z M338.637,271.179c1.48,0.866,3.006,1.669,4.559,2.428
			c-1.276,0.735-2.523,1.609-3.866,2.383c-0.526,0.302-1.079,0.674-1.628,1.094c0.435-1.61,0.75-3.236,0.914-4.651
			C338.666,272.008,338.664,271.591,338.637,271.179z M353.27,293.9c6.639,6.708,14.55,7.73,23.623,7.301
			c8.527-0.404,18.073-2.363,25.285-7.128c3.618-2.39,6.163-5.352,8.799-8.735c1.015-1.303,2.374-2.525,3.544-3.834
			c0.561,0.46,1.114,0.914,1.762,1.273c1.613,0.893,2.893,2.195,4.431,3.13c-2.383,2.579-4.3,6.339-4.79,8.16
			c-1.39,5.16-2.17,10.742,0.08,15.149c-3.293,1.022-5.086,4.998-4.97,8.424c0.053,1.564,0.432,2.921,1.042,4.118
			c-0.075,0.053-0.151,0.099-0.224,0.162c-2.719,2.323-3.665,6.214-3.197,9.676c0.025,0.182,0.056,0.372,0.086,0.559
			c-1.054-0.399-2.169-0.717-3.333-0.919c1.714-3.472,1.944-8.145-0.404-10.953c-2.178-2.605-6.073-3.228-9.188-3.885
			c-4.476-0.945-9.223-1.755-13.793-1.292c-5.435,0.551-11.072,0.2-16.69-0.175c-0.243-1.352-0.535-2.694-1.018-4.016
			c-1.343-3.686-3.366-6.673-6.496-9.113c-2.606-2.031-5.575-2.314-8.015,0.217c-1.429,1.482-2.01,3.22-2.132,5.048
			c-0.389-0.417-0.787-0.821-1.186-1.195c-1.298-1.22-3.063-2.467-4.869-2.861c1.216-2.909,1.717-6.168,1.389-9.639
			c-0.266-2.818-1.564-7.245-3.856-10.064c1.145-0.663,2.074-1.374,3.364-1.876c1.266-0.493,2.442-1.15,3.665-1.723
			C346.443,284.959,349.884,290.479,353.27,293.9z M350.657,277.67c0.095-0.08,0.191-0.155,0.286-0.247
			c0.12-0.117,0.223-0.249,0.318-0.386c5.604,2.07,11.387,3.62,17.01,4.664c7.364,1.368,14.7,0.691,22.091,0.181
			c5.432-0.375,11.075-1.25,16.384-2.876c-0.538,0.606-1.062,1.222-1.545,1.868c-2.187,2.927-4.205,5.519-7.303,7.545
			c-5.372,3.513-12.328,5.189-18.643,5.961c-7.285,0.89-14.641,1.076-20.589-3.795c-2.285-1.872-4.141-3.917-5.544-6.537
			C352.033,282.013,351.454,279.791,350.657,277.67z M417.343,274.495c3.095-1.654,6.118-3.543,8.988-5.667
			c-0.165,0.285-0.314,0.557-0.444,0.809c-1.295,2.501-2.132,5.322-2.307,8.116c-0.137-0.108-0.272-0.213-0.416-0.33
			c-1.157-0.936-2.418-1.461-3.744-2.04c0.07,0.025-0.447-0.217-0.631-0.298C418.318,274.881,417.833,274.675,417.343,274.495z
			 M420.769,328.64c3.331,1.451,7.486,1.388,11.234,0.163c-1.404,5.469-7.12,13.462-12.811,10.422
			c-2.403-1.284-4.542-7.532-4.236-10.054c0.076-0.628,0.362-2.382,0.594-3.44C417.106,326.9,418.922,327.835,420.769,328.64z
			 M388.86,342.306c-2.668,0.866-5.312,2.45-7.846,3.238c-7.547,2.349-14.118,0.257-21.243-2.383
			c-5.594-2.074-10.868-4.543-16.936-4.856c-2.37-0.122-4.702,0.116-6.936,0.952c-0.084,0.031-0.378,0.202-0.765,0.442
			c0.197-4.379,0.784-8.697,2.245-12.641c2.004-5.411,6.948-5.25,11.918-5.211c0.221,0.002,0.443,0,0.664,0
			c0.067,2.185,0.112,4.785,0.558,7.135c-2.268-0.449-4.541-0.928-6.866-1.45c-0.571-0.128-1.248-0.025-1.657,0.438
			c-0.164,0.187-0.329,0.373-0.493,0.56c-0.206,0.233-0.22,0.493-0.099,0.767c2.618,5.919,12.982,6.218,18.383,7.061
			c8.105,1.265,18.25,1.808,25.682-2.261c2.198-1.203,0.976-4.158-1.182-4.364c-5.939-0.565-11.919,0.994-17.956,1.19
			c0.471-1.092,0.752-2.294,0.88-3.487c0.199-1.857-0.105-3.63-0.499-5.404c2.693,0.128,5.389,0.299,8.067,0.467
			c3.88,0.242,7.662-0.303,11.51-0.053c3.168,0.206,12.32,0.507,13.963,3.737c0.653,1.283,0.602,3.065,0.677,4.788
			c-5.68,0.309-11.079,3.089-12.004,8.994C388.802,340.761,388.784,341.548,388.86,342.306z M354.98,306.253
			c1.275,0.279,3.487,4.113,3.897,4.924c1.297,2.562,1.323,5.298,1.84,8.038c0.672,3.562,2.928,7.911-0.548,10.395
			c-0.515,0.368-0.982,0.61-1.412,0.761c-0.772-0.105-1.546-0.211-2.309-0.33c-2.407-2.003-2.399-9.374-2.935-11.904
			c-0.298-1.407-0.482-2.926-0.717-4.44C352.944,311.322,352.269,305.66,354.98,306.253z M399.894,343.041
			c-1.452-0.396-3.689-0.192-4.435-1.556c-1.342-2.452,1.843-4.848,3.943-5.076c2.773-0.301,5.795,0.376,8.408,1.268
			c2.999,1.023,2.811,2.587,4.605,4.973c0.134,0.178,0.273,0.353,0.413,0.529c-2.793,0.313-5.444,1.281-7.348,3.056
			C404.155,344.593,402.055,343.63,399.894,343.041z M407.249,383.129c0.693-2.254-0.158-3.565-0.989-5.58
			c-1.837-4.452-1.63-8.027,1.332-11.861c1.246-1.612,2.294-2.56,2.445-4.739c0.239-3.437-2.134-6.515,0.092-9.847
			c0.322-0.482,0.74-0.919,1.217-1.322c1.426,0.051,2.735-0.224,4.236-0.281c3.426-0.131,6.061,0.878,9.095,2.226
			c5.646,2.508,12.161,6.964,15.19,12.519c6.853,12.569-2.571,35.297-17.515,36.793c-6.144,0.615-16.257-0.855-18.467-7.871
			C402.555,388.945,406.156,386.68,407.249,383.129z M435.173,318.447c-1.09,2.763-3.522,4.218-6.252,4.844
			c-6.613,1.517-14.495-4.393-10.352-10.779c0.6,0.535,1.26,1.044,2.027,1.503c4.743,2.843,10.174,3.296,14.776,1.282
			C435.435,316.347,435.588,317.396,435.173,318.447z M425.738,308.427c-9-3.252-2.835-14.567,1.015-20.78
			c0.277,0.303,0.57,0.599,0.888,0.883c3.332,2.975,7.101,4.105,10.753,3.903c-0.028,1.148,0.244,2.172,0.238,3.645
			c-0.007,1.868-0.625,4.059-1.142,5.831C435.819,307.634,431.593,310.543,425.738,308.427z M409.837,269.199
			c-6.243,2.844-13.596,4.259-20.406,4.592c-6.721,0.328-13.167,1.134-19.887-0.1c-11.651-2.139-24.851-6.569-34.1-14.165
			c-9.988-8.202-17.653-20.416-20.199-33.134c-1.434-7.163-1.805-15.672-0.134-22.811c0.749-3.202,1.984-6.886,3.956-9.589
			c2.113-2.895,5.393-4.036,8.49-5.594c5.676-2.855,12.17-5.292,16.277-10.336c1.934-2.375,4.239-5.24,5.712-8.326
			c0.828-0.623,1.686-1.174,2.594-1.563c2.962-1.269,6.293-0.717,9.503-0.688c6.944,0.061,14.125-0.171,20.966,1.13
			c6.777,1.289,13.55,2.962,20.277,4.474c5.94,1.335,11.91,3.136,15.677,8.266c6.679,9.095,2.939,21.351,10.078,30.006
			c3.4,4.122,8.859,8.231,10.811,13.162c2.615,6.602,0.77,13.714-2.307,19.875C431.57,255.559,420.97,264.128,409.837,269.199z
			 M281.376,281.218c4.152,0.176,8.175-0.06,12.345,0.141c2.186,0.106,5.031,0.207,7.13,0.956c2.954,1.055,3.856,3.196,5.155,5.745
			c0.565,1.108,1.219,2.127,1.979,2.997c-7.658,2.538-14.094,10.459-19.588,15.465c-3.303,3.009-6.798,6.866-9.362,10.576
			c0.02-3.463-0.161-6.92-0.203-10.01c-0.105-7.716-0.875-15.085-2.423-22.632c-0.232-1.129-0.501-2.286-0.836-3.43
			C277.464,281.203,279.437,281.136,281.376,281.218z M288.124,328.506c-0.004,0.003-0.009,0.005-0.013,0.008
			c-1.262,1.11-2.666,2.009-4.213,2.699c-0.86-1.693-1.72-3.385-2.579-5.078c-0.001-0.327,0.14-0.699,0.347-1.086
			c1.213-1.217,2.295-2.609,3.451-3.807c0.2-0.207,0.397-0.414,0.596-0.621C285.977,323.313,286.838,326.03,288.124,328.506z
			 M206.091,280.131c3.698,2.321,6.338,5.863,8.476,9.609c4.382,7.68,4.612,14.884,4.052,23.572
			c-0.562,8.719-1.984,17.634-3.569,26.222c-1.24,6.715-3.541,17.77-10.848,20.609c-8.443,3.28-3.094-17.841-2.534-21.049
			c1.466-8.397,2.654-16.483,2.752-25.02c0.095-8.227-0.637-16.415-2.073-24.528c-0.814-4.601-2.282-9.121-4.916-12.918
			C199.968,276.477,204.481,279.121,206.091,280.131z M219.754,224.191c-3.321,10.465-7.154,22.137-14.244,30.67
			c-3.627,4.365-7.646,8.18-12.453,11.221c-4.999,3.161-10.131,4.778-15.674,6.674c-12.361,4.229-25,5.956-38.044,4.294
			c-5.642-0.719-11.325-1.762-16.741-3.565c-2.88-0.959-5.627-2.295-8.275-3.777c-3.475-1.944-6.138-1.933-7.623-6.085
			c-1.409-3.942-0.809-8.33-0.881-12.426c-0.208-11.682-0.766-22.776-3.535-34.185c-1.116-4.599-1.867-11.307-4.348-16.517
			c3.066-0.751,5.547-2.974,7.535-5.549c3.325-4.306,6.558-9.332,9.312-14.025c1.054-1.796,2.388-3.824,2.729-5.856
			c4.366-0.659,8.758-1.231,13.193-1.821c24.134-3.21,48.698-7.147,72.964-2.559c5.061,0.957,11.49,2.503,15.895,5.264
			c4.278,2.682,4.336,9.512,4.838,14.039C225.663,201.342,223.177,213.405,219.754,224.191z M95.378,333.645
			c-0.852-6.932-2.144-13.806-2.983-20.745c-0.448-3.699-0.958-7.419-1.298-11.147c2.119-0.654,4.276-2.187,6.17-3.603
			c-0.102,2.07,0.056,4.212,0.512,6.402c1.433,6.88,5.805,11.802,9.051,17.813c3.794,7.026,7.772,14.118,11.242,21.314
			c1.167,2.419,1.884,5.349,2.627,8.308c-0.184,0.147-0.356,0.315-0.493,0.529c-1.403,2.185-1.675,4.906-2.738,7.239
			c-2.199-4.162-5.456-8.383-10.014-9.794c-2.524-0.781-6.775-0.998-9.604,0.405c-0.049-0.047-0.095-0.096-0.145-0.142
			c-0.033-0.053-0.075-0.1-0.109-0.153c0.06-0.296,0.095-0.609,0.073-0.959C97.354,344.014,96.009,338.778,95.378,333.645z
			 M90.75,292.867c0.113-2.489,0.621-4.565,2.544-6.613c2.804-2.988,6.516-4.586,8.871-7.973c0.781-1.122,2.731-2.891,4.134-3.068
			c1.397-0.176,3.136,1.049,3.25,2.522c0.157,2.024-1.116,1.813-2.484,2.684c-3.938,2.505-7.045,6.146-11.021,8.629
			C95.043,289.673,90.8,291.775,90.75,292.867z M112.922,317.044c-3.464-6.187-7.978-11.137-7.785-18.725
			c0.197-7.734,5.762-11.133,11.669-14.184c1.43,5.28,4.422,10.651,6.474,15.274c3.182,7.169,6.56,13.984,8.955,21.491
			c2.339,7.332,4.111,14.525,5.583,22.079c0.721,3.7,1.419,7.219-0.056,10.855c-0.822,2.026-1.714,3.348-3.739,4.107
			c-2.061,0.773-2.244,0.201-3.366-1.143c-1.776-2.129-2.149-7.113-2.982-9.686c-1.205-3.719-2.915-7.323-4.762-10.76
			C119.479,329.966,116.467,323.375,112.922,317.044z M131.867,300.622c-0.824-1.727-1.639-3.539-2.479-5.375
			c8.514,6.664,19.148,10.637,30.1,11.589c9.292,0.807,16.678-4.255,23.565-9.858c3.144-2.558,4.975-5.089,6.642-8.741
			c0.92-2.016,1.969-3.798,2.874-5.625c0.805,3.946,1.692,7.874,2.072,12.027c0.831,9.07,1.436,18.119,0.753,27.23
			c-0.142,1.9-0.383,3.789-0.663,5.673c-0.298-0.063-0.616-0.099-0.959-0.097c-9.336,0.043-18.573,1.053-27.914,1.132
			c-6.352,0.053-16.559-1.51-22.576,1.994c-0.558-1.918-1.149-3.79-1.744-5.584C138.75,316.572,135.684,308.616,131.867,300.622z
			 M126.671,283.867c1.522,0.352,3.056,0.671,4.599,0.967c11.425,2.193,24.133,2.273,35.551,0.018
			c6.553-1.295,12.985-3.209,19.057-5.781c-1.011,2.278-2.638,4.666-3.538,6.622c-1.694,3.681-4.755,5.859-7.931,8.238
			c-7.309,5.476-13.922,5.937-22.663,3.993c-7.681-1.708-13.387-4.982-19.824-9.467
			C130.339,287.354,128.564,285.612,126.671,283.867z M58.015,120.097c6.063-15.819,16.506-30.58,31.077-39.56
			c0.079,0.06,0.144,0.126,0.229,0.183c3.395,2.294,6.153,5.358,9.59,7.643c-2.21,1.694-4.266,3.591-6.346,5.439
			c-2.602,2.311,0.818,6.817,3.747,4.856c2.555-1.711,4.751-3.827,7.311-5.54c1.259,1.804,2.309,3.781,3.326,5.706
			c1.744,3.304,3.702,7.366,4.149,11.332c-2.046-0.529-4.176-0.738-6.146-1.49c-3.616-1.38-5.484,4.102-2.502,5.946
			c-0.006,0.01-0.012,0.02-0.018,0.03c0.232,0.104,0.469,0.198,0.705,0.296c0.027,0.01,0.048,0.025,0.076,0.034
			c0.007,0.002,0.015,0.005,0.022,0.007c2.11,0.865,4.346,1.491,6.609,2.074c-1.568,2.865-4.284,5.161-6.912,7.024
			c-1.751,1.241-3.586,2.389-5.471,3.465c-1.264-2.256-2.917-4.346-4.457-6.275c-2.347-2.94-7.134,0.859-5.178,3.995
			c1.135,1.819,2.021,3.754,2.905,5.686c-4.434,1.968-9.051,3.534-13.659,4.687c-2.245,0.562-4.519,1.022-6.809,1.37
			c0.106-1.54,0.212-3.08,0.368-4.616c0.337-3.31-4.731-4.488-6.195-1.678c-1.144,2.196-1.49,4.573-1.719,6.983
			c-0.209,0.006-0.417,0.018-0.626,0.021c-2.274,0.039-4.525-0.235-6.794-0.242c-1.07-0.003-2.28,0.188-3.468,0.227
			C53.616,131.743,55.793,125.895,58.015,120.097z M49.683,145.78c0.299-1.336,0.634-2.663,0.984-3.986
			c3.049,0.998,6.45,1.23,9.547,1.592c0.606,0.071,1.213,0.122,1.82,0.17c-0.653,3.323-1.261,9.113,3.697,9.144
			c5.067,0.031,1.933-8.99,3.482-9.082c2.936-0.175,5.86-0.577,8.752-1.162c5.247-1.062,10.797-2.748,16.115-5.019
			c1.237,2.356,1.991,4.884,4.644,5.988c1.996,0.831,3.857-0.675,4.325-2.609c0.37-1.531-0.403-2.79-1.003-4.125
			c-1.032-2.299-1.399-2.024,0.575-3.576c2.768-2.177,5.851-3.804,8.49-6.204c2.727-2.48,4.591-5.137,5.73-7.932
			c1.861,0.614,3.664,1.349,5.343,2.339c2.314,1.364,5.994-0.955,4.895-3.763c-1.438-3.672-4.96-4.033-8.44-5.014
			c-0.139-0.039-0.276-0.085-0.414-0.126c0.171-4.334-0.963-8.895-3.015-13.566c-1.459-3.321-3.19-6.811-5.341-9.924
			c1.003-0.543,1.981-0.934,2.843-0.995c4.043-0.287,4.065-6.634,0-6.329c-2.215,0.166-4.279,1.14-6.236,2.295
			c-0.25,0.046-0.495,0.112-0.737,0.191c-1.932-1.712-4.29-2.741-6.251-4.425c-1.174-1.008-2.26-2.107-3.406-3.131
			c13.797-7.393,30.511-13.479,45.801-10.723c7.995,1.441,16.855,4.799,24.13,8.381c7.684,3.784,15.099,9.076,21.227,15.053
			c6.266,6.112,10.409,13.997,14.94,21.405c2.78,4.545,4.624,9.066,6.349,14.076c0.956,2.778,1.65,5.753,2.64,8.533
			c-7.988-0.704-16.036-0.951-23.964-0.447c-26.601,1.69-52.676,6.106-78.571,12.364c-20.959,5.065-41.877,11.914-61.857,20.347
			C47.53,158.924,48.224,152.289,49.683,145.78z M19.778,203.66c-2.731-0.484-5.306-1.324-8.006-1.91
			c-0.282-0.061-0.565-0.121-0.847-0.182c-0.26-0.215-0.514-0.437-0.739-0.685c-4.021-4.439,4.539-9.881,7.743-12.107
			c8.268-5.744,17.504-10.463,26.722-14.472c19.056-8.287,39.077-15.026,59.293-19.85c20.821-4.968,42.005-9.346,63.326-11.44
			c20.789-2.042,41.73-2.928,62.335,1.373c8.255,1.723,29.938,3.99,24.557,17.681c-3.73,9.488-13.248,14.764-22.21,18.497
			c-0.111,0.046-0.202,0.109-0.306,0.162c-0.677-3.565-1.791-7.062-4.396-9.702c-3.608-3.655-9.54-5.005-14.279-6.454
			c-6.389-1.954-13.445-2.688-20.09-3.128c-14.473-0.957-28.747-0.428-43.157,1.326c-8.02,0.976-15.957,2.509-23.973,3.517
			c-5.028,0.632-9.983,1.29-14.908,2.242c-2.479-0.122-5.128,0.492-7.23,1.113c-5.269,1.555-10.676,2.945-15.817,4.879
			c-5.459,2.054-11.249,3.009-16.661,5.177c-7.174,2.874-15.271,9.378-12.134,17.663c-0.744-0.016-1.506,0.035-2.299,0.216
			c-3.605,0.824-7.561,4.02-9.077,7.364c-0.638,1.406-0.86,2.926-0.847,4.484c-0.13,0.018-0.262,0.033-0.394,0.049
			c-2.778,0.451-7.225-0.787-8.575-3.438c-3.581-7.027-11.195-5.569-16.543-1.673C20.879,204.027,20.395,203.77,19.778,203.66z
			 M79.819,257.002c-3.756,5.221-3.718-9.5-3.743-11.38c-0.083-6.317-0.915-12.518-1.967-18.695c2.46,0.398,4.355-0.327,5.974-1.76
			c0.655,5.642,0.573,11.353,1.271,17.003C81.952,247.004,82.914,252.7,79.819,257.002z M51.956,254.986
			c-0.095,1.503-0.276,3.079-0.706,4.541c-0.665,2.26-0.402,3.126-2.454,2.438c-2.735-0.918-3.166-5.512-3.63-8.006
			c-1.22-6.561-2.569-13.262-3.071-19.917c-0.403-5.353-0.37-11.449-1.186-17.241c0.608,0.292,1.271,0.48,1.929,0.598
			c1.656,0.297,3.569,0.379,5.281,0.052c0.083,0.356,0.163,0.708,0.238,1.053c1.335,6.171,2.969,11.807,3.413,18.166
			C52.19,242.68,52.335,248.965,51.956,254.986z M58.359,289.161c-5.094,0.092-10.354-0.323-15.417-0.896
			c-5.122-0.579-6.082-4.029-7.736-8.405c-2.212-5.85-3.37-11.89-4.613-18.001c-2.294-11.269-4.418-22.43-6.005-33.827
			c-0.584-4.194-2.667-10.151-1.628-14.361c0.692-2.801,4.661-6.383,7.539-5.313c2.411,0.897,2.53,3.464,3.089,5.799
			c2.521,10.538,1.834,21.701,3.559,32.399c1.163,7.209,1.268,21.066,10.414,23.263c8.549,2.053,10.865-8.674,11.189-14.835
			c0.546-10.389,0.506-21.553-2.081-31.671c-0.72-2.819-1.513-5.594-2.079-8.448c-0.416-2.098-1.612-5.055-0.805-7.078
			c1.004-2.514,4.428-4.342,6.813-3.149c3.192,1.597,3.973,4.514,4.423,7.737c1.641,11.746,3.843,23.245,4.027,35.138
			c0.084,5.418,0.181,15.745,6.819,17.801c7.57,2.345,11.734-7.759,12.578-13.417c0.671-4.494-0.416-8.941-0.802-13.415
			c-0.481-5.569-0.38-11.132-1.255-16.666c-0.802-5.076-2.291-10.297-1.975-15.476c0.151-2.468,1.528-7.331,5.188-5.742
			c2.286,0.993,3.474,5.304,4.008,7.384c3.297,12.817,5.454,25.887,5.309,39.141c-0.068,6.15,0.812,12.339,0.348,18.473
			c-0.213,2.808-0.771,6.089-2.553,8.41c-1.752,2.282-4.949,4.236-7.155,6.097c-8.733,7.367-5.128,20.821-4.051,30.685
			c0.724,6.628,1.584,13.234,2.549,19.831c0.46,3.141,0.702,6.284,1.036,9.438c0.138,1.309,0.417,2.654,0.697,4
			c-4.175-1.431-8.697-1.295-13.053-0.387c0.21-9.25-2.214-18.122-3.438-27.405c-0.648-4.915-1.263-9.825-1.975-14.731
			c-0.505-3.477,0.179-7.802-2.535-10.546C66.019,288.191,61.859,289.098,58.359,289.161z M59.756,320.576
			c2.096-1.947,3.842-3.746,6.33-5.089c0.459,2.796,0.935,5.589,1.423,8.379c-3.456-0.869-7.25-0.937-11.004-0.363
			C57.587,322.525,58.689,321.567,59.756,320.576z M36.677,350.791c1.749-4.466,4.315-9.536,7.814-12.86
			c3.221-3.06,7.177-4.668,11.484-5.457c4.314-0.79,8.626-0.198,12.87-0.945c0.636,3.64,1.262,7.282,1.838,10.932
			c-8.574-3.823-20.485,2.535-27.481,6.988c-2.857,1.818-5.538,3.977-7.987,6.39C35.637,354.108,36.054,352.381,36.677,350.791z
			 M49.064,404.114c0.515,1.1,1.066,2.123,1.637,3.113c-2.268-0.34-4.496-0.923-6.703-1.854c-4.031-1.7-6.184-3.651-9.184-6.758
			c-7.335-7.595-7.174-16.576-2.719-25.772c4.1-8.463,11.393-14.954,19.379-19.632c2.831-1.658,5.988-3.201,9.022-4.304
			c1.85-0.673,3.777-0.937,5.675-1.267c-4.445,2.584-8.332,6.168-11.368,10.293c-0.145,0.197-0.302,0.415-0.459,0.633
			c-0.361,0.219-0.694,0.525-0.975,0.931c-4.651,6.725-7.925,12.165-8.783,20.53C43.706,388.603,45.451,396.391,49.064,404.114z
			 M75.561,414.877c-4.215-1.036-7.978-2.7-11.554-5.161c-7.259-4.995-10.661-15.707-10.934-24.083
			c-0.15-4.587,0.281-9.264,2.028-13.547c0.346-0.849,0.692-1.682,1.028-2.51c0.646-1.018,1.263-2.017,1.868-2.923
			c3.133-4.687,6.798-9.152,11.822-11.949c3.527-1.964,7.917-3.366,12.127-3.655c3.317,0.416,6.497,1.683,9.006,3.967
			c3.377,3.074,2.605,6.252,1.368,10.147c-0.868,2.732-0.989,5.028,1.565,6.951c0.869,0.655,2.093,0.773,2.92,1.43
			c2.509,1.996,1.895,4.905,1.022,7.446c-1.107,3.222-2.313,5.459-0.88,8.872c0.831,1.98,1.369,2.472,1.253,4.597
			c-0.091,1.668-0.905,3.081-1.213,4.668c-0.279,1.438-0.438,2.719-0.177,4.205c0.309,1.766,1.66,3.867,1.033,5.757
			c-1.229,3.7-7.949,4.757-11.241,5.578C82.187,415.77,79.928,415.951,75.561,414.877z M103.396,445.915
			c-0.688,3.203-4.483,4.12-7.422,4.83c-3.479,0.841-5.514,1.449-7.073-2.337c-1.459-3.542-1.687-7.576-2.043-11.358
			c-0.372-3.947-0.279-8.927-1.508-13.053c4.211-0.837,8.983-1.969,12.934-4.062c1.313,5.078,2.674,10.187,3.613,15.334
			C102.426,438.173,104.024,442.991,103.396,445.915z M101.024,366.975c0.569-1.903,1.289-3.73,1.249-5.923
			c-0.032-1.761-0.326-3.61-0.922-5.328c1.632,0.062,3.228,0.31,4.605,1.143c2.814,1.701,4.515,5.243,5.612,8.197
			c2.866,7.713,0.146,16.392-7.364,19.348c0.343-1.484,1.266-2.957,1.563-4.484C106.857,374.338,104.292,370.635,101.024,366.975z
			 M205.42,391.178c-0.452,3.517-0.911,7.034-1.568,10.52c-1.108,5.88-2.491,11.623-2.655,17.632
			c-0.016,0.583,0.096,1.083,0.293,1.511c-14.246,0.297-28.497,0.745-42.751,0.837c-4.938,0.032-9.834-0.464-14.765-0.554
			c-1.338-0.025-2.67,0.007-3.999,0.068c1.13-4.429,0.917-9.363,0.712-13.811c-0.144-3.126-0.309-6.223-0.58-9.336
			c-0.252-2.883,0.213-5.819-0.124-8.679c-0.081-0.685-0.533-1.568-0.479-2.214c0.216-2.63,1.345-2.211,3.613-2.526
			c3.308-0.459,6.665-0.438,9.998-0.569c6.732-0.264,13.457-0.616,20.193-0.774c6.398-0.15,12.813-0.207,19.212-0.073
			c3.083,0.065,6.148,0.406,9.226,0.481c1.149,0.028,2.532-0.326,3.628,0.038c0.491,0.163,0.724,0.097,0.825,0.011
			c-0.035,0.176-0.052,0.551,0.046,1.302C206.466,386.749,205.64,389.465,205.42,391.178z M243.537,419.772
			c0.063-0.296-2.204,0.072-2.775,0.126c-2.246,0.215-4.498,0.521-6.753,0.627c-4.686,0.219-9.431,0.033-14.122,0.056
			c-4.055,0.02-8.111,0.076-12.167,0.144c0.185-0.402,0.3-0.865,0.313-1.395c0.197-7.889,2.336-15.58,3.324-23.391
			c0.531-4.201,2.83-11.736,0.3-15.742c-2.556-4.047-9.117-2.773-13.121-3.003c-8.377-0.481-16.846-0.231-25.227,0.04
			c-8.309,0.269-16.619,0.712-24.92,1.152c-4.28,0.227-11.919-0.188-14.498,4.129c-1.297,2.17-0.546,4.005-0.111,6.215
			c0.646,3.284,0.02,6.779,0.41,10.116c0.486,4.159,1.005,8.347,1.292,12.525c0.224,3.277-0.015,6.81,0.692,10.06
			c-2.45,0.184-4.898,0.399-7.363,0.5c-6.709,0.273-14.794-0.775-21.211,1.852c-0.028-0.091-0.052-0.182-0.081-0.273
			c-0.948-2.994-0.891-6.928-2.895-9.327c2.685-5.15-0.709-10.626,0.503-16.319c0.376-1.766,0.784-3.563,0.688-5.333
			c10.55-3.108,15.92-13.787,14.529-24.136c0.467-0.206,0.918-0.539,1.326-1.033c1.215-1.47,2.214-3.234,2.852-5.108
			c0.266,0.394,0.546,0.777,0.852,1.135c3.285,3.849,10.125,3.836,14.158,1.114c5.025-3.391,7.305-10.532,7.049-16.332
			c-0.17-3.846-0.855-7.911-1.797-11.922c16.106,1.346,32.389-0.561,48.49-0.574c-0.927,4.557-1.939,9.101-2.632,13.674
			c-0.974,6.434-0.43,13.865,5.266,18.069c5.674,4.188,12.546,1.663,17.321-2.704c5.472-5.005,8.152-13.284,9.494-20.433
			c5.839,4.985,11.686,10.669,15.026,17.456c3.97,8.067,4.078,17.765,4.779,26.54c0.421,5.273,1.052,10.55,1.119,15.842
			c0.033,2.619-0.031,5.245-0.048,7.864C243.588,413.145,244.248,418.809,243.537,419.772z M246.675,319.555
			c-0.129,0.807-0.339,1.642-0.577,2.49c-1.507-3.682-2.938-11.879-7.32-12.578c-0.811-0.129-1.512,0.201-1.786,1.014
			c-1.249,3.703,1.653,10.273,2.955,13.76c2.039,5.46,3.004,10.984,4.099,16.695c1.13,5.898,1.535,11.516,1.361,17.419
			c-0.848-1.718-1.813-3.389-2.932-4.993c-2.695-3.866-5.241-7.431-8.722-10.665c-1.411-1.311-2.911-2.602-4.422-3.796
			c-1.702-1.345-3.503-1.786-5.306-2.823c0.875-6.312,1.502-12.674,2.109-18.994c0.718-7.47,1.769-16.061-0.385-23.388
			c-1.544-5.251-4.566-10.838-8.489-15.3c1.543,0.325,3.103,0.587,4.63,0.853c5.717,0.996,11.556,1.633,17.299,2.452
			c1.438,0.205,2.884,0.228,4.328,0.136c0.438,1.352,0.944,2.691,1.422,4.067c2.013,5.795,2.357,11.708,2.433,17.77
			C247.44,309.19,247.555,314.062,246.675,319.555z M249.292,281.247c-0.053-0.094-0.107-0.194-0.161-0.293
			c2.051-0.482,4.071-1.089,6.029-1.683c4.833-1.465,10.503-1.473,12.389,3.801c3.696,10.337,3.814,22.63,3.186,33.507
			c-0.133,2.308,0.296,7.383-0.812,9.368c-1.411,2.528-7.464,3.306-10.201,3.529c-2.311,0.189-4.54-0.281-6.761-0.715
			c1.003-3.441,1.156-7.572,1.626-10.617c1.011-6.551,0.576-13.047,0.07-19.649C254.186,292.343,252.324,286.574,249.292,281.247z
			 M288.43,352.048c-3.865,2.879-7.902,5.116-12.585,6.349c-4.139,1.09-8.58,2.775-12.891,2.921
			c-3.136,0.106-6.182-0.972-9.254-1.48c0.227-7.277-0.602-13.854-2.294-20.932c-0.114-0.476-0.229-0.948-0.344-1.421
			c3.79,0.74,8.023,0.703,11.149,0.124c4.53-0.839,9.731-1.685,12.938-4.898c1.095,2.5,3.372,4.531,6.103,4.973
			c1.112,0.18,2.193,0.102,3.238-0.149c-0.298,1.279-0.402,2.596-0.131,3.995c0.606,3.125,2.682,6.41,5.624,7.822
			c0.403,0.193,0.803,0.337,1.201,0.454C290.289,350.584,289.378,351.342,288.43,352.048z M290.398,340.556
			c-0.51-1.897,0.712-4.301,1.758-6.489c0.34,0.341,0.686,0.671,1.043,0.98c1.452,1.256,3.886,2.646,6.443,3.562
			c-0.851,0.878-1.668,1.848-2.626,2.695C294.982,343.105,291.291,343.876,290.398,340.556z M476.343,394.905
			c0.285,3.679,0.012,7.539-0.046,11.233c-0.036,2.238-0.442,4.467-0.644,6.693c-0.284,0.957-0.666,1.849-1.228,2.604
			c-2.737,3.675-8.413,4.833-12.494,6.145c-4.705,1.513-9.162,3.042-14.103,3.598c-4.933,0.555-9.887,0.206-14.84,0.437
			c-18.89,0.881-37.679,1.414-56.559,1.085c-3.954-0.069-8.128-0.444-12.048-0.913c-4.597-0.55-9.294-0.177-13.921-0.234
			c-9.206-0.114-18.373-1.028-27.611-1.018c-9.252,0.009-18.553-0.542-27.581-2.753c-1.365-0.334-4.064-0.712-4.796-1.841
			c-1.084-1.674-0.959-5.658-1.026-7.571c-0.179-5.127,0.58-10.174,1.694-15.165c2.447-10.96,5.531-21.984,9.001-32.662
			c1.781-5.48,3.684-10.912,5.388-16.417c0.729-2.358,1.889-4.78,2.407-7.183c0.124-0.574,0.121-1.403,0.142-2.25
			c3.798-2.264,6.111-7.727,6.833-11.778c0.312-1.75-1.831-3.455-3.244-1.888c-1.474,1.634-4.119,5.665-6.325,6.237
			c-2.395,0.621-6.863-2.104-8.155-3.643c-3.285-3.914-5.1-8.867-4.786-13.879c0.932-0.928,1.874-1.848,2.837-2.75
			c3.393-3.179,6.882-6.854,10.703-9.518c2.351-1.639,4.94-2.393,6.952-3.898c-0.45,2.97-0.135,6.064,0.93,8.406
			c1.295,2.85,3.684,5.124,6.498,6.534c-2.757,3.617-4.115,8.624-3.047,12.874c0.727,2.891,2.59,5.649,5.208,7.15
			c2.307,1.323,4.753,1.43,7.258,1.41c-0.313,3.815-0.493,7.639-0.58,11.468c-0.103,4.589-0.004,9.18-0.122,13.769
			c-0.135,5.255-1.012,10.518-0.663,15.768c0.585,8.792-1.227,18.601,1.041,27.212c1.901,7.216,11.132,8.218,17.223,9.747
			c10.006,2.511,19.645,3.968,29.987,4.053c5.613,0.046,15.545,0.177,17.6-6.443c0.039-0.125,0.048-0.239,0.075-0.36
			c3.591,0.464,7.323-0.482,9.689-3.17c0.358-0.406,0.572-0.856,0.686-1.315c3.632,2.155,7.925,3.328,11.993,3.772
			c7.579,0.827,12.786-1.145,18.47-5.257c5.393,1.233,11.316,0.26,16.475-1.515c2.663-0.916,5.55-1.894,8.263-3.161
			c0.506,0.293,1.137,0.373,1.664,0.056c2.881-1.73,5.821-3.274,8.193-5.708c0.941-0.966,1.718-1.893,2.378-2.858
			c1.063-1.007,1.98-2.296,2.938-3.616C475.513,389.262,476.128,392.139,476.343,394.905z M469.821,348.713
			c0.051,0.167,0.102,0.336,0.151,0.489c1.604,5.01,5.068,8.899,5.452,14.387c0.248,3.553-0.342,6.805-1.504,9.826
			c-0.049-4.546-0.858-9.072-2.213-13.059c-1.133-3.335-3.06-6.669-5.477-9.756C467.525,350.173,468.772,349.511,469.821,348.713z
			 M467.218,328.477c0.265,0.661,0.442,1.35,0.451,2.091c0.027,2.391-1.288,3.366-2.714,5.067c-1.07,1.276-1.149,3.471,0.559,4.34
			c2.214,1.127,2.114,2.944,0.125,4.137c-1.443,0.865-3.069,0.639-4.653,0.871c-1.386-1.252-2.837-2.417-4.33-3.459
			c3.648-2.196,6.957-6.042,8.849-9.248C466.213,331.076,466.776,329.798,467.218,328.477z M445.713,300.842
			c1.553,0.839,3.362,1.433,4.809,2.273c4.56,2.649,7.378,6.327,9.215,11.214c1.94,5.162,1.857,11.513-2.032,15.906
			c-1.283,1.45-2.826,3.141-4.323,4.359c-1.471,1.196-3.134,1.387-4.594,2.605c-0.044,0.037-0.075,0.082-0.116,0.121
			c-3.49-1.197-8.174-1.666-12.669-1.091c1.704-2.902,2.661-6.156,2.479-9.318c-0.034-0.591-0.201-1.083-0.442-1.498
			c3.176-2.823,4.896-6.867,3.382-11.65c-0.241-0.762-0.716-1.363-1.331-1.762c0.208-0.214,0.419-0.421,0.618-0.649
			C442.944,308.782,444.876,304.86,445.713,300.842z M443.742,283.433c-3.525,3.136-9.46,3.14-12.639-0.624
			c-4.83-5.718,0.819-13.488,5.698-18.297c1.847,4.788,6.032,7.682,10.817,7.486C447.661,276.402,447.378,280.198,443.742,283.433z
			 M477.064,213.941c-0.053,0.49-0.124,0.981-0.207,1.471c-0.772,0.745-1.228,1.779-1.072,3.076
			c0.017,0.143,0.034,0.285,0.051,0.428c0.02,0.162,0.053,0.326,0.084,0.489c-0.65,2.256-1.453,4.483-2.193,6.635
			c-2.532,7.362-6.393,14.308-9.451,21.478c-1.576,3.694-3.259,6.434-6.067,9.259c-2.76,2.777-7.155,8.551-11.495,8.277
			c-5.143-0.325-4.855-7.1-4.635-13.134c0.398-0.665,0.787-1.335,1.151-2.017c5.964-11.15,8.648-26.588-1.566-36.089
			c-2.534-2.357-4.701-4.929-6.847-7.644c-2.635-3.333-2.857-7.24-3.087-11.345c-0.32-5.729-3.097-11.942-6.09-16.789
			c-0.53-0.858-1.097-1.643-1.696-2.372c4.136,1.233,8.258,2.516,12.319,3.924c13.475,4.671,30.078,13.289,38.083,25.419
			C476.286,207.945,477.465,210.239,477.064,213.941z M503.032,199.893c-0.353,4.253-2.134,8.493-5.822,10.856
			c-2.995,1.919-8.195,3.647-12.491,3.904c0.583-6.137-1.499-10.327-4.727-15.774c-3.445-5.814-9.748-10.495-15.345-14.075
			c-6.507-4.162-13.427-8.602-20.654-11.345c-16.488-6.257-35.621-11.697-53.459-11.447c-2.55-0.54-5.09-1.045-7.587-1.512
			c-8.727-1.633-18.096-1.568-26.949-1.465c-1.652,0.019-3.14,0.272-4.509,0.699c-9.147-1.829-18.698-0.023-27.817,1.192
			c-8.1,1.079-15.557,4.844-21.858,9.963c-3.691,2.998-7.114,6.503-9.88,10.438c-1.044-0.932-1.996-2.016-2.986-2.911
			c-1.789-1.617-3.965-2.949-5.573-4.754c-4.083-4.582-2.683-9.379,1.266-13.341c6.41-6.43,15.337-9.837,23.895-12.37
			c9.697-2.87,20.158-3.425,30.171-4.559c10.419-1.18,20.757-0.906,31.224-0.882c20.922,0.048,41.82,3.196,62.158,8.031
			c19.353,4.601,39.367,12.456,55.694,23.975C496.288,180.518,503.965,188.635,503.032,199.893z"/>
	</g>
</g>
<g>
</g>
<g>
</g>
<g>
</g>
<g>
</g>
<g>
</g>
<g>
</g>
<g>
</g>
<g>
</g>
<g>
</g>
<g>
</g>
<g>
</g>
<g>
</g>
<g>
</g>
<g>
</g>
<g>
</g>
</svg>
