<svg id="Icons" height="512" viewBox="0 0 512 512" width="512" xmlns="http://www.w3.org/2000/svg"><circle cx="256" cy="256" fill="#14a36d" r="256"/><path d="m473.68 390.75c-71.29 115.35-221.33 155.62-341.35 89.39-118.33-65.31-164.69-210.56-108.8-331.37 23.47-6.59 44.35-24.39 69-25.9 26.49-1.64 52.5 19 56.89 45.21 3 17.77-2.95 36.3 1.09 53.87 4.47 19.46 22.12 35.15 42 37.31 7.87.86 16.08-.18 23.55 2.46 11.3 4 18.38 15.41 29.14 20.68 13.09 6.42 28.85 2.51 42.25-3.28s26.49-13.45 41-14.47c25.16-1.75 47.93 17.61 58.25 40.61 7.64 17 10.51 36.8 23.32 50.31 16.76 17.7 45.85 19.43 63.66 35.18z" fill="#15be79"/><path d="m122.77 420.34h276.36a8.78 8.78 0 0 0 8.77-8.78v-212.74h-293.9v212.74a8.78 8.78 0 0 0 8.77 8.78z" fill="#f4e6f4"/><path d="m178.38 420.32h-55.59a8.77 8.77 0 0 1 -8.79-8.75v-212.74h33.77v190.92a30.6 30.6 0 0 0 30.61 30.57z" fill="#decee5"/><ellipse cx="395.05" cy="284.5" fill="#fff" rx="12.85" ry="41.9"/><ellipse cx="395.05" cy="359.62" fill="#fff" rx="7.88" ry="25.71"/><path d="m156.29 276.37h72.71a8.52 8.52 0 0 1 8.52 8.52v135.45a0 0 0 0 1 0 0h-89.75a0 0 0 0 1 0 0v-135.45a8.52 8.52 0 0 1 8.52-8.52z" fill="#3e4e60"/><rect fill="#334353" height="11.36" rx="5.68" width="26.16" x="160.59" y="357.32"/><ellipse cx="222.13" cy="300.13" fill="#3f5d77" rx="9.35" ry="17.69"/><ellipse cx="222.13" cy="336.65" fill="#3f5d77" rx="4.95" ry="12.36"/><rect fill="#334353" height="126.68" rx="9.34" width="102.85" x="271.28" y="242.6"/><path d="m316.7 257.79v38.95a3.17 3.17 0 0 1 -3.2 3.2h-27a3.17 3.17 0 0 1 -3.2-3.2v-38.95a3.21 3.21 0 0 1 3.2-3.24h27a3.21 3.21 0 0 1 3.2 3.24z" fill="#79c7fd"/><path d="m362.17 257.79v38.95a3.21 3.21 0 0 1 -3.24 3.2h-27a3.21 3.21 0 0 1 -3.21-3.2v-38.95a3.25 3.25 0 0 1 3.21-3.24h27a3.25 3.25 0 0 1 3.24 3.24z" fill="#79c7fd"/><path d="m316.7 315.13v38.95a3.21 3.21 0 0 1 -3.2 3.24h-27a3.21 3.21 0 0 1 -3.2-3.24v-38.95a3.2 3.2 0 0 1 3.2-3.2h27a3.2 3.2 0 0 1 3.2 3.2z" fill="#79c7fd"/><path d="m362.17 315.13v38.95a3.25 3.25 0 0 1 -3.24 3.24h-27a3.24 3.24 0 0 1 -3.21-3.24v-38.95a3.23 3.23 0 0 1 3.21-3.2h27a3.24 3.24 0 0 1 3.24 3.2z" fill="#79c7fd"/><path d="m407.9 103.07h-293.9l-36.7 95.76h367.31z" fill="#e52e44"/><path d="m335.44 124.15c0 5.51-9.05 10.27-22.14 12.51a100.58 100.58 0 0 1 -16.8 1.34 99.07 99.07 0 0 1 -18.23-1.61c-12.31-2.33-20.7-6.94-20.7-12.25s7.93-9.67 19.69-12.05a98.08 98.08 0 0 1 19.24-1.81 104.14 104.14 0 0 1 13.6.87c14.8 1.97 25.34 7.04 25.34 13z" fill="#fa4654"/><path d="m404.07 124.15c0 4.48-8.93 8.24-21 9.29-2.16.18-4.42.28-6.74.28-15.31 0-27.71-4.29-27.71-9.57s12.4-9.57 27.71-9.57h1.18c14.78.22 26.56 4.42 26.56 9.57z" fill="#fa4654"/><g fill="#f4e6f4"><path d="m179.96 103.07h-32.19l-28.27 95.76h40.24z"/><path d="m309.08 103.07h-32.2l3.98 95.76h40.24z"/><path d="m244.69 103.07h-32.19l-12.1 95.76h40.23z"/><path d="m374.13 103.07h-32.19l20.23 95.76h40.23z"/></g><path d="m313.3 136.66a100.58 100.58 0 0 1 -16.8 1.34 99.07 99.07 0 0 1 -18.23-1.61l-1-24.3a98.08 98.08 0 0 1 19.24-1.81 104.14 104.14 0 0 1 13.6.87z" fill="#fff"/><path d="m383.09 133.44c-2.16.18-4.42.28-6.74.28-15.31 0-27.71-4.29-27.71-9.57s12.4-9.57 27.71-9.57h1.18z" fill="#fff"/><path d="m77.3 198.83h42.2a0 0 0 0 1 0 0v4.17a21.1 21.1 0 0 1 -21.1 21.1 21.1 21.1 0 0 1 -21.1-21.1v-4.15a0 0 0 0 1 0 0z" fill="#fff"/><path d="m402.4 198.83h42.2a0 0 0 0 1 0 0v4.17a21.1 21.1 0 0 1 -21.1 21.1 21.1 21.1 0 0 1 -21.1-21.1v-4.15a0 0 0 0 1 0-.02z" fill="#fff"/><path d="m119.5 198.83h40.38a0 0 0 0 1 0 0v5.06a20.19 20.19 0 0 1 -20.19 20.19 20.19 20.19 0 0 1 -20.19-20.19v-5.06a0 0 0 0 1 0 0z" fill="#fa4654"/><path d="m200.39 198.83h40.38a0 0 0 0 1 0 0v5.06a20.19 20.19 0 0 1 -20.19 20.19 20.19 20.19 0 0 1 -20.19-20.19v-5.06a0 0 0 0 1 0 0z" fill="#fa4654"/><path d="m159.88 198.83h40.38a0 0 0 0 1 0 0v5.06a20.19 20.19 0 0 1 -20.19 20.19 20.19 20.19 0 0 1 -20.19-20.19v-5.06a0 0 0 0 1 0 0z" fill="#fff"/><path d="m240.77 198.83h40.38a0 0 0 0 1 0 0v5.06a20.19 20.19 0 0 1 -20.15 20.19 20.19 20.19 0 0 1 -20.19-20.19v-5.06a0 0 0 0 1 -.04 0z" fill="#fff"/><path d="m280.86 198.83h40.38a0 0 0 0 1 0 0v5.06a20.19 20.19 0 0 1 -20.19 20.19 20.19 20.19 0 0 1 -20.19-20.19v-5.06a0 0 0 0 1 0 0z" fill="#fa4654"/><path d="m362 198.83h40.4a0 0 0 0 1 0 0v5.06a20.19 20.19 0 0 1 -20.19 20.19 20.19 20.19 0 0 1 -20.21-20.19v-5.06a0 0 0 0 1 0 0z" fill="#fa4654"/><path d="m321.24 198.83h40.76a0 0 0 0 1 0 0v5a20.29 20.29 0 0 1 -20.29 20.29h-.2a20.29 20.29 0 0 1 -20.29-20.29v-5a0 0 0 0 1 0 0z" fill="#fff"/><path d="m133.28 70.13h255.34a19.28 19.28 0 0 1 19.28 19.28v13.67a0 0 0 0 1 0 0h-293.9a0 0 0 0 1 0 0v-13.67a19.28 19.28 0 0 1 19.28-19.28z" fill="#c11a36"/><path d="m147.77 70.13h32.19v32.94h-32.19z" fill="#decee5"/><path d="m212.5 70.13h32.19v32.94h-32.19z" fill="#decee5"/><path d="m276.88 70.13h32.19v32.94h-32.19z" fill="#decee5"/><path d="m341.94 70.13h32.19v32.94h-32.19z" fill="#decee5"/></svg>