<?xml version="1.0" encoding="iso-8859-1"?>
<!-- Generator: Adobe Illustrator 19.0.0, SVG Export Plug-In . SVG Version: 6.00 Build 0)  -->
<svg version="1.1" id="Capa_1" xmlns="http://www.w3.org/2000/svg" xmlns:xlink="http://www.w3.org/1999/xlink" x="0px" y="0px"
	 viewBox="0 0 221.023 221.023" style="enable-background:new 0 0 221.023 221.023;" xml:space="preserve">
<g>
	<path d="M114.045,55.723c-0.943-0.935-2.198-1.45-3.532-1.45c-1.335,0-2.59,0.516-3.533,1.451l-31.563,31.3
		c-1.244,1.233-1.654,2.818-1.096,4.24c0.558,1.421,1.77,2.304,3.615,2.363l2.244,0.004v27.957c0,2.945,3.13,4.924,5.742,4.924
		h17.542l0.041-16h14.016l0.042,16h17.541c2.612,0,5.076-1.979,5.076-4.924V93.631l2.772-0.006c1.736-0.057,3.187-0.933,3.739-2.343
		c0.559-1.422,0.183-3.014-1.075-4.26L114.045,55.723z"/>
	<path d="M110.513,0C58.884,0,16.88,42.003,16.88,93.632c0,29.405,25.995,64.394,41.49,82.633
		c9.865,11.611,40.62,44.759,52.143,44.759c13.932,0,51.893-44.317,52.271-44.765c15.446-18.218,41.359-53.178,41.359-82.627
		C204.144,42.003,162.141,0,110.513,0z M169.718,92.941c0,32.447-26.399,58.846-58.848,58.846
		c-32.447,0-58.846-26.398-58.846-58.846c0-32.448,26.398-58.848,58.846-58.848C143.318,34.094,169.718,60.493,169.718,92.941z"/>
</g>
<g>
</g>
<g>
</g>
<g>
</g>
<g>
</g>
<g>
</g>
<g>
</g>
<g>
</g>
<g>
</g>
<g>
</g>
<g>
</g>
<g>
</g>
<g>
</g>
<g>
</g>
<g>
</g>
<g>
</g>
</svg>
