<svg height="512pt" viewBox="-46 0 512 512" width="512pt" xmlns="http://www.w3.org/2000/svg"><path d="m177.128906 232.5h64.609375l25.210938-55h-101.953125zm0 0"/><path d="m210 0c-115.792969 0-210 94.207031-210 210 0 93.359375 61.519531 175.210938 150.441406 201.429688l46.140625 92.277343c2.539063 5.082031 7.734375 8.292969 13.417969 8.292969 5.679688 0 10.875-3.210938 13.414062-8.292969l46.140626-92.277343c88.925781-26.214844 150.445312-108.070313 150.445312-201.429688 0-115.792969-94.207031-210-210-210zm-39.671875 304.5c-8.261719 0-15-6.738281-15-15s6.738281-15 15-15 15 6.738281 15 15-6.738281 15-15 15zm75 0c-8.261719 0-15-6.738281-15-15s6.738281-15 15-15 15 6.738281 15 15-6.738281 15-15 15zm58.636719-135.75-38.96875 85c-2.441406 5.332031-7.769532 8.75-13.632813 8.75h-86.289062c-7.039063 0-13.132813-4.894531-14.648438-11.769531l-23.867187-108.230469h-8.835938c-8.285156 0-15-6.714844-15-15s6.714844-15 15-15h20.886719c7.042969 0 13.132813 4.894531 14.648437 11.769531l5.125 23.230469h131.945313c5.109375 0 9.867187 2.601562 12.625 6.898438 2.761719 4.300781 3.140625 9.707031 1.011719 14.351562zm0 0"/></svg>