<svg xmlns="http://www.w3.org/2000/svg" viewBox="0 0 901.44 220.01"><defs><style>.cls-1,.cls-4{fill:none;}.cls-1,.cls-3,.cls-4,.cls-5{stroke:#fff;}.cls-1,.cls-3,.cls-4{stroke-linecap:round;}.cls-1,.cls-5{stroke-miterlimit:10;}.cls-1{stroke-width:12px;}.cls-2,.cls-3,.cls-5{fill:#fff;}.cls-3,.cls-4{stroke-linejoin:round;stroke-width:3px;}.cls-5{stroke-width:5px;}</style></defs><title>LOGO_SHEAFT_V6_white</title><g id="FEUILLES_V3" data-name="FEUILLES V3"><g id="FRAISE"><path class="cls-1" d="M174.32,162.12s52.51-.66,72.3-48.83c12.53-30.51,5.76-73.38-1.9-99.37" transform="translate(-42.35)"/><path class="cls-1" d="M243.68,11.68c-26.92-4.35-73.45-12-102.4,4.1C95.57,41.2,92.22,96,92.22,96" transform="translate(-42.35)"/><circle class="cls-2" cx="175.01" cy="33.92" r="7.15"/><circle class="cls-2" cx="132.75" cy="89.66" r="7.15"/><circle class="cls-2" cx="164.44" cy="113.51" r="7.15"/><circle class="cls-2" cx="87.87" cy="82.5" r="7.15"/><circle class="cls-2" cx="113.51" cy="41.08" r="7.15"/><circle class="cls-2" cx="182.16" cy="75.35" r="7.15"/><circle class="cls-2" cx="113.51" cy="133.66" r="7.15"/></g><path class="cls-3" d="M63.05,218.51c-6-73.94,41.35-65.24,51.14-62.67,1.12.29-21.11,13-4.84,39C119.77,211.43,69.7,207.26,63.05,218.51Z" transform="translate(-42.35)"/><path class="cls-3" d="M49.55,97.41c-.9,43.29,34,25.45,34,25.45C66.83,120.72,55.82,104.07,49.55,97.41Z" transform="translate(-42.35)"/><path class="cls-2" d="M131.61,209.55c-41-31.1-10.85-52-10.85-52C151.81,173.75,127.34,198.13,131.61,209.55Z" transform="translate(-42.35)"/><path class="cls-4" d="M43.85,162.34c36.09-45.51,58.22-9.16,58.22-9.16C82.92,188.18,56.7,158.14,43.85,162.34Z" transform="translate(-42.35)"/><path class="cls-2" d="M165,207.88c-30.45-12-13.72-29.82-13.72-29.82C173.44,182.69,160.8,201.65,165,207.88Z" transform="translate(-42.35)"/></g><g id="sheaft_vert_foncé" data-name="sheaft vert foncé"><path class="cls-5" d="M359,166.86a60.39,60.39,0,0,1-22.95-4.5,59.73,59.73,0,0,1-19.53-12.78l12.24-14.22a52.4,52.4,0,0,0,14.4,9.63,38.64,38.64,0,0,0,16.2,3.69q10.08,0,15.3-4.14a13.29,13.29,0,0,0,5.22-11,12.87,12.87,0,0,0-1.35-6.12,14,14,0,0,0-3.78-4.41,32.57,32.57,0,0,0-5.76-3.51q-3.33-1.62-7.29-3.24l-16.2-7a54.9,54.9,0,0,1-8.55-4.5,37.46,37.46,0,0,1-7.65-6.48,29.33,29.33,0,0,1-7.56-20.34,29.16,29.16,0,0,1,3-13,33.33,33.33,0,0,1,8.19-10.53,38.22,38.22,0,0,1,12.51-7,48.73,48.73,0,0,1,15.93-2.52,50.18,50.18,0,0,1,19.8,4,51.29,51.29,0,0,1,16.38,10.89L386.9,73.08A52.45,52.45,0,0,0,375,65.7,33.54,33.54,0,0,0,361.34,63c-5.64,0-10.14,1.24-13.5,3.69a11.92,11.92,0,0,0-5,10.17,10.73,10.73,0,0,0,1.53,5.85A15.65,15.65,0,0,0,348.47,87a33.15,33.15,0,0,0,6,3.42c2.28,1,4.62,2,7,3l16,6.66a55.87,55.87,0,0,1,9.54,5,35,35,0,0,1,7.47,6.66,29,29,0,0,1,4.95,8.73,33.4,33.4,0,0,1,1.8,11.43,31.91,31.91,0,0,1-11.25,24.57,41.08,41.08,0,0,1-13.32,7.56A52.61,52.61,0,0,1,359,166.86Z" transform="translate(-42.35)"/><path class="cls-5" d="M429,164.7V47H449.9V94.32h47.7V47h20.88V164.7H497.6V112.5H449.9v52.2Z" transform="translate(-42.35)"/><path class="cls-5" d="M554.66,164.7V47h70.92V64.62h-50V94.68h42.3v17.64h-42.3v34.74h51.84V164.7Z" transform="translate(-42.35)"/><path class="cls-5" d="M642.5,164.7,680.84,47h24.48L743.66,164.7h-22l-9.18-31.86h-39.6l-9.18,31.86Zm39.42-62.64-4.14,14.4h30.06l-4.14-14.4q-2.88-9.34-5.49-19.26t-5.13-19.62h-.72q-2.52,9.92-5,19.71T681.92,102.06Z" transform="translate(-42.35)"/><path class="cls-5" d="M764.54,164.7V47h71.1V64.62H785.42v33.3h42.84v17.64H785.42V164.7Z" transform="translate(-42.35)"/><path class="cls-5" d="M886.4,164.7V64.62h-34V47H941.3V64.62h-34V164.7Z" transform="translate(-42.35)"/></g></svg>