<?xml version="1.0" encoding="iso-8859-1"?>
<!-- Generator: Adobe Illustrator 19.0.0, SVG Export Plug-In . SVG Version: 6.00 Build 0)  -->
<svg version="1.1" id="fridge_icon" xmlns="http://www.w3.org/2000/svg" xmlns:xlink="http://www.w3.org/1999/xlink" x="0px" y="0px"
	 viewBox="0 0 369.666 369.666" style="enable-background:new 0 0 369.666 369.666;" xml:space="preserve">
<g>
	<g>
		<path d="M275.159,0H94.872c-10.752,0-19.5,8.748-19.5,19.5v102.165c-0.236,0.581-0.366,1.216-0.366,1.882
			c0,0.666,0.13,1.301,0.366,1.882v203.15c0,10.752,8.748,19.5,19.5,19.5h3.185v16.587c0,2.762,2.239,5,5,5h164.649
			c2.762,0,5-2.238,5-5v-16.587h2.453c10.752,0,19.5-8.748,19.5-19.5V19.5C294.659,8.748,285.911,0,275.159,0z M262.706,359.666
			H108.057v-11.587h154.649V359.666z M284.659,328.579c0,5.238-4.262,9.5-9.5,9.5h-7.453H94.873c-5.238,0-9.5-4.262-9.5-9.5V128.547
			h179.528v52.566h-11.465c-2.762,0-5,2.238-5,5c0,2.762,2.238,5,5,5h16.465c2.762,0,5-2.238,5-5v-57.566h9.758V328.579z
			 M284.66,118.547h-9.758V60.98c0-2.762-2.238-5-5-5h-18.66c-2.762,0-5,2.238-5,5c0,2.762,2.238,5,5,5h13.66v52.567H85.373V19.5
			c0-5.238,4.262-9.5,9.5-9.5H275.16c5.238,0,9.5,4.262,9.5,9.5V118.547z"/>
	</g>
</g>
<g>
</g>
<g>
</g>
<g>
</g>
<g>
</g>
<g>
</g>
<g>
</g>
<g>
</g>
<g>
</g>
<g>
</g>
<g>
</g>
<g>
</g>
<g>
</g>
<g>
</g>
<g>
</g>
<g>
</g>
</svg>
