<?xml version="1.0" encoding="iso-8859-1"?>
<!-- Generator: Adobe Illustrator 19.0.0, SVG Export Plug-In . SVG Version: 6.00 Build 0)  -->
<svg version="1.1" id="dairy_icon" xmlns="http://www.w3.org/2000/svg" xmlns:xlink="http://www.w3.org/1999/xlink" x="0px" y="0px"
	 viewBox="0 0 213.34 213.34" style="enable-background:new 0 0 213.34 213.34;" xml:space="preserve">
<g id="SVGCleanerId_0">
	<g>
		<path d="M61.899,110.52c-10.137,0-18.384,7.985-18.384,17.797c0,9.811,8.247,17.792,18.384,17.792s18.383-7.981,18.383-17.792
			C80.282,118.504,72.035,110.52,61.899,110.52z M61.899,139.361c-6.415,0-11.634-4.954-11.634-11.042
			c0-6.091,5.219-11.047,11.634-11.047c6.415,0,11.633,4.955,11.633,11.047C73.532,134.408,68.313,139.361,61.899,139.361z"/>
	</g>
</g>
<g>
	<g>
		<path d="M99.42,52.066c-9.2,0-16.407,5.56-16.407,12.658c0,7.098,7.207,12.659,16.407,12.659s16.407-5.561,16.407-12.659
			C115.827,57.627,108.62,52.066,99.42,52.066z M99.42,70.633c-5.144,0-9.657-2.761-9.657-5.909c0-2.794,3.966-5.908,9.657-5.908
			s9.657,3.114,9.657,5.908C109.077,67.872,104.565,70.633,99.42,70.633z"/>
	</g>
</g>
<g>
	<g>
		<path d="M61.899,110.52c-10.137,0-18.384,7.985-18.384,17.797c0,9.811,8.247,17.792,18.384,17.792s18.383-7.981,18.383-17.792
			C80.282,118.504,72.035,110.52,61.899,110.52z M61.899,139.361c-6.415,0-11.634-4.954-11.634-11.042
			c0-6.091,5.219-11.047,11.634-11.047c6.415,0,11.633,4.955,11.633,11.047C73.532,134.408,68.313,139.361,61.899,139.361z"/>
	</g>
</g>
<g>
	<g>
		<path d="M211.74,75.599c-0.27-0.693-1.484-3.584-3.909-6.143c-17.343-18.326-38.353-31.268-62.444-38.466
			c-13.636-4.074-27.657-6.14-41.677-6.14c-2.832,0-5.378,0.846-7.178,2.387c-0.814,0.701-43.477,36.914-51.898,44.045
			c-1.146,0.975-1.924,2.007-2.31,3.069c-0.616,1.694,0.208,3.572,1.87,4.267c2.467,1.031,3.76,2.712,3.76,4.037
			c0,1.415-1.349,2.828-3.899,3.842c-1.851,0.734-4.013,1.122-6.25,1.122c-1.926,0-3.823-0.292-5.484-0.844
			c-0.044-0.015-1.526-0.586-2.698-0.586c-1.621,0-3.212,0.654-4.727,1.943c-0.282,0.24-1.096,0.905-2.232,1.833
			c-8.66,7.08-14.747,12.166-16.307,13.979c-1.918,2.227-3.024,4-3.401,4.641C2.203,109.605,0,113.068,0,118.655v17.395
			c0,3.512,2.343,5.084,4.666,5.084c0.466,0,0.854-0.059,1.111-0.096l0.126-0.019c0.216-0.033,0.453-0.05,0.705-0.05
			c3.144,0,5.703,2.74,5.703,6.109c0,3.363-2.558,6.1-5.703,6.1c-0.22,0-0.44-0.014-0.635-0.037
			c-0.216-0.029-0.439-0.043-0.664-0.043c-2.61,0-5.309,1.927-5.309,5.152v24.189c0,3.449,2.577,6.051,5.994,6.051
			c0.403,0,0.817-0.037,1.227-0.107c2.521-0.437,89.258-15.065,146.653-24.746c26.15-4.411,47.25-7.969,53.904-9.094
			c2.324-0.365,5.095-1.711,5.095-6.049c0-0.191,0.017-2.093,0.045-5.158c0.114-12.705,0.421-46.454,0.421-59.952
			C213.343,79.794,212.02,76.296,211.74,75.599z M26.939,95.192c1.187-0.971,2.038-1.667,2.334-1.919
			c0.173-0.147,0.785-0.138,0.918-0.094c2.341,0.778,4.974,1.19,7.615,1.19c3.08,0,6.101-0.552,8.741-1.598
			c5.296-2.107,8.458-5.948,8.458-10.273c0-2.651-1.234-5.141-3.448-7.156c-0.203-0.185-0.564-0.598-0.056-1.031
			c11.671-9.929,48.531-41.18,49.43-41.954c0.553-0.474,1.592-0.757,2.779-0.757c22.035,0,64.227,5.521,99.22,42.498
			c0.063,0.067,0.125,0.135,0.187,0.203l-3.077,0.525l-59.155,9.809c-3.054-2.038-6.916-3.185-10.836-3.185
			c-0.851,0-1.708,0.053-2.55,0.159c-4.471,0.56-10.477,1.957-13.293,7.45l-99.762,16.543
			C18.246,102.299,24.44,97.236,26.939,95.192z M137.896,90.811c1.27,1.038,2.783,2.837,2.783,5.51
			c0,5.653-4.777,10.252-10.648,10.252c-5.871,0-10.647-4.599-10.647-10.252c-0.002-1.906,0.15-2.206,0.435-3.22
			c0.64-2.016,2.113-3.992,8.517-4.794c0.563-0.07,1.14-0.106,1.711-0.106c2.961,0,5.821,0.951,7.847,2.609v0.001H137.896z
			 M206.173,143.277c-0.021,2.272-0.035,3.912-0.042,4.702c-7.257,1.225-27.925,4.711-53.375,9.003
			c-58.409,9.851-137.539,23.198-146.002,24.635V159.93c6.801-0.079,12.31-5.813,12.31-12.85c0-7.041-5.509-12.779-12.31-12.859
			v-17.364c0-2.413,0.627-2.701,2.434-3.317l103.445-17.377c0,0.052,0,0.105,0,0.158c0,9.375,7.805,17.002,17.396,17.002
			c9.595,0,17.359-7.627,17.399-17.002c0.015-3.408-1.259-5.676-1.278-5.716l54.977-9.117l5.12-0.804
			c0.195,0.866,0.346,1.821,0.346,2.703C206.593,96.854,206.287,130.581,206.173,143.277z"/>
	</g>
</g>
<g>
	<g>
		<path d="M99.42,52.066c-9.2,0-16.407,5.56-16.407,12.658c-0.001,7.098,7.206,12.659,16.407,12.659
			c9.2,0,16.407-5.561,16.407-12.659C115.827,57.627,108.62,52.066,99.42,52.066z M99.42,70.633c-5.145,0-9.657-2.761-9.657-5.909
			c-0.001-2.794,3.965-5.908,9.657-5.908c5.691,0,9.657,3.114,9.657,5.908C109.077,67.872,104.564,70.633,99.42,70.633z"/>
	</g>
</g>
<g>
</g>
<g>
</g>
<g>
</g>
<g>
</g>
<g>
</g>
<g>
</g>
<g>
</g>
<g>
</g>
<g>
</g>
<g>
</g>
<g>
</g>
<g>
</g>
<g>
</g>
<g>
</g>
<g>
</g>
</svg>
