<?xml version="1.0" encoding="iso-8859-1"?>
<!-- Generator: Adobe Illustrator 19.0.0, SVG Export Plug-In . SVG Version: 6.00 Build 0)  -->
<svg version="1.1" id="drinks_icon" xmlns="http://www.w3.org/2000/svg" xmlns:xlink="http://www.w3.org/1999/xlink" x="0px" y="0px"
	 viewBox="0 0 362.85 362.85" style="enable-background:new 0 0 362.85 362.85;" xml:space="preserve">
<g>
	<g>
		<g>
			<path d="M323.574,184.402c-0.472-28.88-14.892-90.342-37.032-104.104c-14.86-9.238-34.24-7.201-44.315-5.214
				c1.184-20.496,2.782-39.788,2.807-40.095c0.214-2.57-1.562-4.882-4.101-5.337l-68.326-12.237c-0.021-0.003-0.04-0.007-0.06-0.01
				L68.528,0.068c-2.061-0.342-4.115,0.629-5.155,2.438c-1.042,1.809-0.85,4.075,0.481,5.682C63.97,8.33,75.604,22.47,80.352,35.293
				c3.923,10.592,4.644,14.672,4.769,15.604c-0.491,5.72-6.014,68.127-14.985,93.149c-2.27,6.336-5.214,13.434-8.33,20.949
				c-10.05,24.238-22.557,54.404-22.557,83.737c0,42.928,14.517,73.092,23.169,87.251c11.585,18.956,20.279,25.594,20.643,25.867
				c0.865,0.649,1.918,1,3,1h139.712c1.327,0,2.598-0.526,3.536-1.465c1.849-1.848,44.297-44.983,46.266-105.271
				c4.893-1.613,21.011-7.287,29.904-14.776C318.461,230.407,324.042,212.847,323.574,184.402z M79.047,11.96l91.825,15.304
				l63.829,11.432c-0.35,4.431-0.905,11.696-1.481,20.177L94.975,49.206c-0.376-2.407-1.569-7.462-5.245-17.387
				C87.111,24.75,82.811,17.542,79.047,11.96z M79.55,147.42c7.915-22.079,13.054-69.39,14.858-88.23l138.164,9.663
				c-0.856,13.853-1.601,29.101-1.601,40.168c0,14.754,2.667,27.651,6.557,39.98h-74.095c-0.071-0.073-0.142-0.146-0.213-0.219
				l-13.818-13.817c-3.202-3.202-7.471-4.965-12.021-4.965c-4.55,0-8.82,1.763-12.021,4.965l-13.82,13.818
				c-0.071,0.071-0.143,0.145-0.213,0.217H78.976C79.171,148.47,79.362,147.942,79.55,147.42z M118.612,165.755
				c-1.827-1.827-2.431-4.42-1.813-6.754h41.162c0.618,2.334,0.013,4.927-1.813,6.753l-13.82,13.819
				c-1.312,1.312-3.069,2.035-4.948,2.035c-1.879,0-3.637-0.722-4.95-2.035c0,0,0,0,0-0.001L118.612,165.755z M125.465,149.001
				l6.965-6.965c1.313-1.312,3.071-2.035,4.95-2.035c1.879,0,3.636,0.722,4.949,2.035l6.965,6.965H125.465z M223.616,352.85H87.918
				c-2.523-2.331-8.909-8.896-16.967-22.083c-8.105-13.263-21.702-41.556-21.702-82.036c0-27.342,12.084-56.488,21.794-79.907
				c1.395-3.363,2.755-6.644,4.042-9.824h31.578c-0.521,4.932,1.104,10.052,4.876,13.824l13.819,13.819v-0.001
				c3.202,3.202,7.471,4.965,12.021,4.965s8.82-1.763,12.02-4.964l13.819-13.819c3.773-3.772,5.398-8.891,4.877-13.824h72.862
				c2.07,5.635,4.318,11.223,6.6,16.897c8.892,22.104,18.087,44.96,18.087,75.894C265.644,304.131,231.016,344.767,223.616,352.85z
				 M299.037,233.691c-6.19,5.212-17.373,9.663-23.509,11.859c-1.115-29.686-10.042-51.879-18.693-73.384
				c-8.158-20.28-15.864-39.435-15.864-63.146c0-6.645,0.284-14.956,0.702-23.585c7.463-1.718,26.358-4.869,39.589,3.357
				c15.704,9.761,31.777,63.093,32.313,95.776C314.104,216.811,306.084,227.757,299.037,233.691z"/>
			<path d="M170.144,269.205c-3.286-8.778-13.102-13.248-21.88-9.962l-13.977,5.231c-4.24,1.586-7.614,4.74-9.5,8.882
				c-1.886,4.142-2.05,8.757-0.463,12.997l5.23,13.979c2.553,6.822,9.049,11.041,15.939,11.041c1.976,0,3.985-0.347,5.942-1.079
				l13.977-5.23c4.24-1.587,7.614-4.741,9.5-8.883c1.886-4.141,2.05-8.757,0.463-12.998L170.144,269.205z M165.81,292.037
				c-0.778,1.711-2.165,3.011-3.904,3.662l-13.977,5.23c-3.613,1.351-7.656-0.487-9.01-4.102l-5.23-13.979
				c-0.651-1.739-0.58-3.638,0.198-5.348c0.779-1.711,2.165-3.011,3.904-3.661l13.978-5.231c0.805-0.301,1.632-0.444,2.445-0.444
				c2.837,0,5.512,1.737,6.564,4.547l5.231,13.978C166.66,288.428,166.589,290.327,165.81,292.037z"/>
			<path d="M205.249,196.502h-14.924c-9.374,0-17,7.626-17,17v14.924c0,9.374,7.626,17,17,17h14.924c9.374,0,17-7.626,17-17v-14.924
				C222.249,204.128,214.623,196.502,205.249,196.502z M212.249,228.426c0,3.859-3.141,7-7,7h-14.924c-3.859,0-7-3.141-7-7v-14.924
				c0-3.859,3.141-7,7-7h14.924c3.859,0,7,3.141,7,7V228.426z"/>
			<path d="M91.323,170.82c-2.479-1.22-5.473-0.196-6.69,2.282c-0.813,1.652-19.889,40.91-19.889,78.69
				c0,37.987,17.3,67.596,18.036,68.838c0.935,1.575,2.598,2.45,4.306,2.45c0.867,0,1.745-0.226,2.546-0.7
				c2.375-1.41,3.158-4.476,1.75-6.852c-0.167-0.28-16.638-28.463-16.638-63.736c0-35.417,18.676-73.897,18.864-74.282
				C94.824,175.032,93.802,172.037,91.323,170.82z"/>
		</g>
	</g>
</g>
<g>
</g>
<g>
</g>
<g>
</g>
<g>
</g>
<g>
</g>
<g>
</g>
<g>
</g>
<g>
</g>
<g>
</g>
<g>
</g>
<g>
</g>
<g>
</g>
<g>
</g>
<g>
</g>
<g>
</g>
</svg>
