<?xml version="1.0" encoding="iso-8859-1"?>
<!-- Generator: Adobe Illustrator 19.0.0, SVG Export Plug-In . SVG Version: 6.00 Build 0)  -->
<svg version="1.1" id="fish_icon" xmlns="http://www.w3.org/2000/svg" xmlns:xlink="http://www.w3.org/1999/xlink" x="0px" y="0px"
	 viewBox="0 0 385 385" style="enable-background:new 0 0 385 385;" xml:space="preserve">
<g>
	<g>
		<g>
			<path d="M384.477,273.228c-0.077-0.157-7.805-15.834-8.339-28.428c-0.572-13.465-1.704-27.326-8.56-35.869
				c-4.21-5.246-9.833-9.12-13.671-11.385c5.009-2.956,12.706-8.206,17.099-14.69c6.612-9.76,6.618-24.814,6.057-39.397
				c-0.529-13.755,6.51-31.574,6.58-31.75c0.568-1.422,0.455-3.025-0.309-4.352c-0.764-1.327-2.093-2.231-3.608-2.453
				c-1.013-0.148-24.953-3.371-40.401,19.48c-9.989,14.775-14.389,33.316-16.187,43.73c-5.047-4.07-10.792-8.337-17.247-12.61
				c-13.426-8.888-31.297-18.611-53.474-26.225c0.339-3.685,0.652-9.994-0.392-15.605c-1.501-8.07-4.593-15.623-4.724-15.94
				c-0.753-1.828-2.513-3.041-4.49-3.093c-0.2-0.005-20.195-0.572-40.915-4.198c-18.711-3.274-30.723-24.027-30.838-24.229
				c-1.304-2.306-4.18-3.195-6.557-2.028c-0.557,0.274-13.73,6.907-21.308,24.979c-5.549,13.23-6.009,24.01-5.865,28.78
				c-46.44,6.835-78.76,27.866-98.815,46.023c-26.405,23.906-37.585,47.604-38.048,48.601c-0.886,1.908-0.483,4.168,1.01,5.652
				c0.593,0.589,14.814,14.596,40.921,29.423c23.697,13.459,62.027,30.08,110.732,33.413c4.364,6.748,10.031,13.745,17.19,19.473
				c20.452,16.361,42.663,20.545,43.599,20.715c0.302,0.055,0.603,0.082,0.9,0.082c2.347,0,4.437-1.66,4.901-4.045
				c0.173-0.883,4.138-21.85-3.219-40.244c-0.029-0.072-0.058-0.143-0.087-0.215c46.929-9.976,84.262-33.181,107.546-51.128
				c2.345,9.308,7.783,26.503,18.309,39.646c16.002,19.978,37.931,15.197,38.855,14.985c1.492-0.343,2.744-1.352,3.398-2.736
				C385.175,276.206,385.159,274.599,384.477,273.228z M347.608,129.986c7.627-11.282,17.836-14.373,24.339-15.118
				c-2.273,7.167-5.271,18.743-4.877,28.976c0.496,12.925,0.571,26.15-4.344,33.404c-4.05,5.979-12.55,11.01-16.214,12.991
				c-3.138-3.564-7.922-8.627-14.393-14.465C332.798,170.145,336.203,146.856,347.608,129.986z M152.415,93.032
				c3.794-9.048,9.277-14.542,12.863-17.394c5.266,7.41,17.406,21.595,34.894,24.656c16.559,2.898,32.277,3.897,38.99,4.212
				c0.938,2.669,2.252,6.807,3.032,10.997c0.655,3.521,0.617,7.576,0.432,10.644c-21.096-6.265-45.67-10.473-73.626-10.473
				c-7.526,0-14.75,0.366-21.687,1.048C147.299,112.564,147.917,103.758,152.415,93.032z M78.967,254.016
				c-36.464-14.5-60.136-33.708-67.767-40.438c3.866-7.04,14.627-24.636,34.025-42.197c8.093-7.327,18.301-15.148,30.767-22.211
				C79.718,154.954,92,175.761,92,198.674c0,27.376-12.654,54.431-12.781,54.701C79.119,253.586,79.035,253.8,78.967,254.016z
				 M210.579,310.117c-7.286-2.105-21.17-7.121-34.014-17.396c-13.312-10.649-20.977-26.934-24.16-35
				c6.518-1.517,14.718-2.763,18.641-1.609c19.23,5.656,32.075,14.406,36.168,24.64
				C211.446,291.331,211.192,303.389,210.579,310.117z M211.179,267.689c-9.412-11.55-25.502-18.204-37.77-21.812
				c-9.638-2.834-27.796,2.398-29.835,3.004c-2.645,0.786-4.153,3.568-3.369,6.214c0.105,0.352,2.056,6.844,6.348,15.382
				c-21.668-2.126-41.18-6.942-58.235-12.955C89.461,255.083,102,227.618,102,198.674c0-24.886-12.37-46.724-17.13-54.202
				c21.848-10.764,49.688-18.797,84.128-18.797c60.714,0,104.748,20.622,130.997,37.922c21.481,14.157,34.91,28.469,40.288,34.75
				C327.943,210.38,279.145,254.249,211.179,267.689z M350.073,259.091c-11.412-14.249-16.296-34.826-17.446-40.345
				c6.807-5.679,11.811-10.405,14.813-13.372c2.956,1.622,8.534,5.075,12.34,9.817c4.961,6.183,5.888,18.745,6.367,30.034
				c0.389,9.173,3.807,19.263,6.408,25.723C366.598,270.627,357.526,268.396,350.073,259.091z"/>
			<path d="M67,174.674c-8.822,0-16,7.178-16,16c0,8.822,7.178,16,16,16s16-7.178,16-16C83,181.852,75.822,174.674,67,174.674z
				 M67,196.674c-3.309,0-6-2.691-6-6c0-3.309,2.691-6,6-6c3.309,0,6,2.691,6,6C73,193.983,70.309,196.674,67,196.674z"/>
		</g>
	</g>
</g>
<g>
</g>
<g>
</g>
<g>
</g>
<g>
</g>
<g>
</g>
<g>
</g>
<g>
</g>
<g>
</g>
<g>
</g>
<g>
</g>
<g>
</g>
<g>
</g>
<g>
</g>
<g>
</g>
<g>
</g>
</svg>
