<?xml version="1.0" encoding="iso-8859-1"?>
<!-- Generator: Adobe Illustrator 19.0.0, SVG Export Plug-In . SVG Version: 6.00 Build 0)  -->
<svg version="1.1" id="grocery_icon" xmlns="http://www.w3.org/2000/svg" xmlns:xlink="http://www.w3.org/1999/xlink" x="0px" y="0px"
	 viewBox="0 0 338.042 338.042" style="enable-background:new 0 0 338.042 338.042;" xml:space="preserve">
<g>
	<g>
		<path d="M322.318,23.921C298.62,0.219,260.708-6.13,215.568,6.042c-35.268,9.51-71.761,29.484-105.153,57.266
			c-0.625,0.225-1.215,0.58-1.729,1.065c-0.368,0.345-0.671,0.735-0.91,1.151c-7.507,6.371-14.854,13.139-21.984,20.269
			c-39.517,39.516-67.84,85.605-79.75,129.775c-12.171,45.14-5.822,83.051,17.878,106.751
			c10.435,10.435,22.089,15.723,34.652,15.723c0.128,0,0.259-0.001,0.388-0.002c34.67-0.3,72.662-39.629,120.76-89.421
			c10.914-11.298,22.199-22.981,34.058-34.84c11.861-11.86,23.543-23.146,34.842-34.06c49.791-48.098,89.119-86.089,89.419-120.759
			C338.148,46.251,332.859,34.462,322.318,23.921z M196.267,22.937c10.445,8.52,38.378,32.933,43.764,44.783
			c2.78,6.115,1.993,13.083-1.872,16.566c-3.567,3.215-9.177,2.852-15.796-1.028c-16.223-9.51-46.717-35.932-57.509-45.441
			C175.28,32.008,185.791,27.024,196.267,22.937z M92.864,92.863c6.195-6.194,12.555-12.107,19.04-17.71
			c10.813,11.855,43.887,49.183,50.624,69.393c1.675,5.027,0.416,13.167-4.592,18.088c-4.451,4.372-10.918,5.23-18.7,2.485
			c-19.924-7.032-55.615-44.273-64.038-53.269C80.788,105.384,86.685,99.042,92.864,92.863z M37.818,164.853
			c9.509,10.792,35.931,41.286,45.441,57.509c3.88,6.618,4.245,12.229,1.028,15.797c-3.483,3.864-10.452,4.65-16.566,1.872
			c-11.842-5.383-36.26-33.319-44.784-43.766C27.025,185.791,32.009,175.28,37.818,164.853z M241.672,172.526
			c-11.329,10.945-23.043,22.26-34.964,34.182c-11.921,11.92-23.237,23.634-34.18,34.963
			c-44.632,46.203-83.177,86.105-113.655,86.369c-10.037,0.075-19.187-4.098-27.882-12.791
			C9.928,294.186,4.496,259.71,15.697,218.172c0.985-3.652,2.089-7.323,3.306-11c9.175,10.856,31.261,35.909,44.579,41.964
			c10.136,4.608,21.706,2.849,28.132-4.28c2.973-3.298,8.942-12.586,0.171-27.549c-10.991-18.75-41.888-53.828-48.771-61.562
			c7.448-12.29,16.022-24.414,25.604-36.174c10.126,10.786,45.527,47.334,67.189,54.979c15.473,5.461,24.835-0.652,29.037-4.782
			c7.216-7.09,10.189-19.027,7.07-28.383c-7.364-22.092-40.928-60.068-52.437-72.67c11.758-9.58,23.88-18.154,36.168-25.601
			c7.733,6.883,42.811,37.78,61.561,48.772c14.96,8.769,24.249,2.803,27.548-0.171c7.129-6.426,8.888-17.994,4.28-28.133
			c-6.054-13.317-31.106-35.404-41.962-44.579c3.677-1.217,7.347-2.321,11-3.306c41.538-11.201,76.013-5.768,97.076,15.294
			c8.694,8.695,12.878,17.816,12.791,27.883C327.776,89.351,287.874,127.895,241.672,172.526z"/>
	</g>
</g>
<g>
</g>
<g>
</g>
<g>
</g>
<g>
</g>
<g>
</g>
<g>
</g>
<g>
</g>
<g>
</g>
<g>
</g>
<g>
</g>
<g>
</g>
<g>
</g>
<g>
</g>
<g>
</g>
<g>
</g>
</svg>
