<svg version="1.1" id="meat_icon" xmlns="http://www.w3.org/2000/svg" xmlns:xlink="http://www.w3.org/1999/xlink" x="0px" y="0px"
	 viewBox="0 0 366.076 366.076" style="enable-background:new 0 0 366.076 366.076;" xml:space="preserve">
<g>
	<g>
		<g>
			<path d="M37.14,113.455c0.454,0.127,0.911,0.189,1.361,0.189c2.183,0,4.188-1.439,4.81-3.643
				c4.275-15.143,16.79-20.151,17.37-20.376c2.572-0.972,3.878-3.842,2.917-6.422c-0.964-2.588-3.845-3.903-6.431-2.94
				c-0.723,0.27-17.78,6.83-23.481,27.022C32.936,109.942,34.482,112.705,37.14,113.455z"/>
			<path d="M366.076,168.899c0-21.239-17.28-38.519-38.519-38.519s-38.519,17.28-38.519,38.519c0,2.585,0.254,5.137,0.76,7.638
				h-32.853c-0.844-2.655-2.32-5.607-4.888-8.987c-4.125-5.426-10.729-8.39-18.375-11.821c-6.29-2.823-13.42-6.021-20.7-11.222
				c-5.804-4.145-9.41-9.635-14.399-17.233c-7.532-11.47-17.847-27.178-42.404-46.618C115.932,48.794,62.571,52.02,58.27,52.336
				C25.58,52.573,0,109.916,0,183.076c0,69.921,23.364,125.394,53.97,130.377c0.222,0.05,0.45,0.085,0.682,0.105
				c0.015,0.001,0.032,0.003,0.052,0.004c1.403,0.191,2.828,0.274,4.251,0.251c2.053,0.088,4.766,0.163,8.013,0.163
				c19.64,0,58.765-2.769,88.846-22.44c24.599-16.087,34.948-29.105,42.505-38.61c4.953-6.23,8.531-10.732,14.299-14.135
				c7.301-4.308,14.449-6.957,20.756-9.295c7.628-2.827,14.216-5.269,18.383-9.798c1-1.086,1.847-2.158,2.565-3.211l34.804,1.65
				c-0.059,0.803-0.088,1.608-0.088,2.414c0,18.209,14.814,33.024,33.024,33.024c18.21,0,33.024-14.815,33.024-33.024
				c0-7.042-2.265-13.858-6.356-19.468C359.442,194.041,366.076,182.02,366.076,168.899z M59.304,303.798
				c-1.743-0.067-2.937-0.142-3.479-0.18c-11.095-1.664-22.104-13.696-30.562-33.586C15.42,246.887,10,216.005,10,183.076
				c0-32.929,5.42-63.811,15.263-86.956c9.13-21.47,21.235-33.785,33.209-33.785S82.55,74.649,91.68,96.12
				c9.843,23.145,15.263,54.026,15.263,86.956s-5.421,63.811-15.263,86.956C82.761,291.006,71.005,303.243,59.304,303.798z
				 M248.106,205.372c-0.249,2.44-1.119,4.74-3.709,7.555c-2.54,2.76-8.083,4.814-14.5,7.193
				c-6.367,2.36-14.292,5.297-22.362,10.059c-7.361,4.343-11.849,9.988-17.045,16.524c-7.53,9.472-16.901,21.261-40.15,36.464
				c-21.48,14.046-48.753,18.758-68.536,20.19c20.858-19.779,35.139-65.614,35.139-120.281c0-54.434-14.159-100.11-34.872-120.025
				c18.865,1.978,45.868,8.003,67.902,25.446c23.291,18.438,32.695,32.759,40.252,44.266c5.162,7.861,9.62,14.65,16.945,19.882
				c8.09,5.779,16.035,9.344,22.418,12.208c6.662,2.99,11.925,5.352,14.507,8.749c4.024,5.296,3.989,8.288,3.941,12.429
				c-0.013,1.163-0.027,2.365,0.04,3.679v8.866c0,0.843,0.03,1.69,0.061,2.545c0.013,0.36,0.026,0.712,0.036,1.058
				C248.15,203.498,248.125,204.616,248.106,205.372z M338.807,195.111c-1.566,0.673-2.682,2.099-2.958,3.782
				c-0.277,1.682,0.323,3.39,1.592,4.53c4.858,4.365,7.644,10.608,7.644,17.129c0,12.695-10.329,23.024-23.024,23.024
				s-23.024-10.328-23.024-23.024c0-1.985,0.255-3.96,0.757-5.872c0.383-1.459,0.088-3.014-0.805-4.23
				c-0.893-1.216-2.287-1.964-3.794-2.036l-36.523-1.731l-0.476-20.145h38.314c1.665,0,3.22-0.828,4.149-2.21
				c0.929-1.382,1.109-3.135,0.48-4.677c-1.395-3.422-2.103-7.04-2.103-10.75c0-15.726,12.793-28.519,28.519-28.519
				s28.519,12.793,28.519,28.519C356.074,180.312,349.296,190.601,338.807,195.111z"/>
			<path d="M53.059,175.01c-10.543,0-18.494,12.96-18.494,30.148c0,17.187,7.951,30.148,18.494,30.148
				c10.543,0,18.494-12.961,18.494-30.148S63.602,175.01,53.059,175.01z M53.059,225.305c-3.382,0-8.494-8.036-8.494-20.148
				s5.112-20.148,8.494-20.148c3.381,0,8.494,8.036,8.494,20.148S56.441,225.305,53.059,225.305z"/>
		</g>
	</g>
</g>
<g>
</g>
<g>
</g>
<g>
</g>
<g>
</g>
<g>
</g>
<g>
</g>
<g>
</g>
<g>
</g>
<g>
</g>
<g>
</g>
<g>
</g>
<g>
</g>
<g>
</g>
<g>
</g>
<g>
</g>
</svg>
